<svg width="1440" height="816" viewBox="0 0 1440 816" fill="none" xmlns="http://www.w3.org/2000/svg">
<g clip-path="url(#clip0_10_28126)">
<rect width="1440" height="816" fill="#090817"/>
<g filter="url(#filter0_f_10_28126)">
<path fill-rule="evenodd" clip-rule="evenodd" d="M966.999 449.292C952.225 506.848 887.332 523.587 854.267 570.324C825.767 610.608 831.897 688.949 788.013 702.284C741.745 716.343 710.932 635.046 663.46 628.304C613.566 621.217 564.113 689.034 518.916 664.065C476.375 640.563 465.644 572.308 464.633 518.461C463.716 469.583 505.817 433.974 513.693 385.886C523.166 328.053 476.826 253.24 514.656 213.062C551.763 173.653 613.481 215.543 663.096 227.212C698.15 235.457 725.575 264.905 760.973 270.994C817.997 280.803 884.676 233.528 930.536 273.216C973.56 310.45 982.186 390.134 966.999 449.292Z" fill="url(#paint0_linear_10_28126)"/>
</g>
<g filter="url(#filter1_f_10_28126)">
<path fill-rule="evenodd" clip-rule="evenodd" d="M1274.34 419.292C1259.56 476.848 1194.67 493.587 1161.6 540.324C1133.1 580.608 1139.23 658.949 1095.35 672.284C1049.08 686.343 1018.27 605.046 970.798 598.304C920.904 591.217 871.451 659.034 826.254 634.065C783.713 610.563 772.982 542.308 771.971 488.461C771.054 439.583 813.155 403.974 821.031 355.886C830.504 298.053 784.164 223.24 821.994 183.062C859.101 143.653 920.819 185.543 970.434 197.212C1005.49 205.457 1032.91 234.905 1068.31 240.994C1125.33 250.803 1192.01 203.528 1237.87 243.216C1280.9 280.45 1289.52 360.134 1274.34 419.292Z" fill="url(#paint1_linear_10_28126)"/>
</g>
<path d="M512.852 481V472.6H518.192V473.632H514.124V476.248H517.832V477.256H514.124V479.968H518.192V481H512.852ZM519.659 481V475.048H520.787L520.883 476.092C521.067 475.724 521.335 475.436 521.687 475.228C522.047 475.012 522.459 474.904 522.923 474.904C523.643 474.904 524.207 475.128 524.615 475.576C525.031 476.024 525.239 476.692 525.239 477.58V481H523.979V477.712C523.979 476.56 523.507 475.984 522.563 475.984C522.091 475.984 521.699 476.152 521.387 476.488C521.083 476.824 520.931 477.304 520.931 477.928V481H519.659ZM529.234 481C528.65 481 528.186 480.86 527.842 480.58C527.498 480.292 527.326 479.784 527.326 479.056V476.116H526.306V475.048H527.326L527.482 473.536H528.598V475.048H530.278V476.116H528.598V479.056C528.598 479.384 528.666 479.612 528.802 479.74C528.946 479.86 529.19 479.92 529.534 479.92H530.218V481H529.234ZM534.221 481.144C533.637 481.144 533.117 481.016 532.661 480.76C532.213 480.496 531.861 480.132 531.605 479.668C531.349 479.204 531.221 478.664 531.221 478.048C531.221 477.424 531.345 476.876 531.593 476.404C531.849 475.932 532.201 475.564 532.649 475.3C533.105 475.036 533.633 474.904 534.233 474.904C534.817 474.904 535.325 475.036 535.757 475.3C536.189 475.556 536.525 475.9 536.765 476.332C537.005 476.764 537.125 477.24 537.125 477.76C537.125 477.84 537.121 477.928 537.113 478.024C537.113 478.112 537.109 478.212 537.101 478.324H532.469C532.509 478.9 532.697 479.34 533.033 479.644C533.377 479.94 533.773 480.088 534.221 480.088C534.581 480.088 534.881 480.008 535.121 479.848C535.369 479.68 535.553 479.456 535.673 479.176H536.945C536.785 479.736 536.465 480.204 535.985 480.58C535.513 480.956 534.925 481.144 534.221 481.144ZM534.221 475.948C533.797 475.948 533.421 476.076 533.093 476.332C532.765 476.58 532.565 476.956 532.493 477.46H535.853C535.829 476.996 535.665 476.628 535.361 476.356C535.057 476.084 534.677 475.948 534.221 475.948ZM538.445 481V475.048H539.585L539.693 476.176C539.901 475.784 540.189 475.476 540.557 475.252C540.933 475.02 541.385 474.904 541.913 474.904V476.236H541.565C541.213 476.236 540.897 476.296 540.617 476.416C540.345 476.528 540.125 476.724 539.957 477.004C539.797 477.276 539.717 477.656 539.717 478.144V481H538.445ZM546.723 483.64L548.151 480.508H547.803L545.451 475.048H546.831L548.655 479.452L550.563 475.048H551.907L548.067 483.64H546.723ZM555.197 481.144C554.629 481.144 554.117 481.016 553.661 480.76C553.213 480.496 552.857 480.132 552.593 479.668C552.329 479.196 552.197 478.648 552.197 478.024C552.197 477.4 552.329 476.856 552.593 476.392C552.865 475.92 553.229 475.556 553.685 475.3C554.141 475.036 554.649 474.904 555.209 474.904C555.777 474.904 556.285 475.036 556.733 475.3C557.189 475.556 557.549 475.92 557.813 476.392C558.085 476.856 558.221 477.4 558.221 478.024C558.221 478.648 558.085 479.196 557.813 479.668C557.549 480.132 557.189 480.496 556.733 480.76C556.277 481.016 555.765 481.144 555.197 481.144ZM555.197 480.052C555.501 480.052 555.781 479.976 556.037 479.824C556.301 479.672 556.513 479.448 556.673 479.152C556.833 478.848 556.913 478.472 556.913 478.024C556.913 477.576 556.833 477.204 556.673 476.908C556.521 476.604 556.313 476.376 556.049 476.224C555.793 476.072 555.513 475.996 555.209 475.996C554.905 475.996 554.621 476.072 554.357 476.224C554.101 476.376 553.893 476.604 553.733 476.908C553.573 477.204 553.493 477.576 553.493 478.024C553.493 478.472 553.573 478.848 553.733 479.152C553.893 479.448 554.101 479.672 554.357 479.824C554.613 479.976 554.893 480.052 555.197 480.052ZM561.793 481.144C561.073 481.144 560.505 480.92 560.089 480.472C559.681 480.024 559.477 479.356 559.477 478.468V475.048H560.749V478.336C560.749 479.488 561.221 480.064 562.165 480.064C562.637 480.064 563.025 479.896 563.329 479.56C563.633 479.224 563.785 478.744 563.785 478.12V475.048H565.057V481H563.929L563.833 479.956C563.649 480.324 563.377 480.616 563.017 480.832C562.665 481.04 562.257 481.144 561.793 481.144ZM566.675 481V475.048H567.815L567.923 476.176C568.131 475.784 568.419 475.476 568.787 475.252C569.163 475.02 569.615 474.904 570.143 474.904V476.236H569.795C569.443 476.236 569.127 476.296 568.847 476.416C568.575 476.528 568.355 476.724 568.187 477.004C568.027 477.276 567.947 477.656 567.947 478.144V481H566.675ZM577.041 481.144C576.457 481.144 575.937 481.016 575.481 480.76C575.033 480.496 574.681 480.132 574.425 479.668C574.169 479.204 574.041 478.664 574.041 478.048C574.041 477.424 574.165 476.876 574.413 476.404C574.669 475.932 575.021 475.564 575.469 475.3C575.925 475.036 576.453 474.904 577.053 474.904C577.637 474.904 578.145 475.036 578.577 475.3C579.009 475.556 579.345 475.9 579.585 476.332C579.825 476.764 579.945 477.24 579.945 477.76C579.945 477.84 579.941 477.928 579.933 478.024C579.933 478.112 579.929 478.212 579.921 478.324H575.289C575.329 478.9 575.517 479.34 575.853 479.644C576.197 479.94 576.593 480.088 577.041 480.088C577.401 480.088 577.701 480.008 577.941 479.848C578.189 479.68 578.373 479.456 578.493 479.176H579.765C579.605 479.736 579.285 480.204 578.805 480.58C578.333 480.956 577.745 481.144 577.041 481.144ZM577.041 475.948C576.617 475.948 576.241 476.076 575.913 476.332C575.585 476.58 575.385 476.956 575.313 477.46H578.673C578.649 476.996 578.485 476.628 578.181 476.356C577.877 476.084 577.497 475.948 577.041 475.948ZM581.265 481V475.048H582.393L582.501 475.888C582.693 475.584 582.945 475.344 583.257 475.168C583.577 474.992 583.945 474.904 584.361 474.904C585.305 474.904 585.961 475.276 586.329 476.02C586.545 475.676 586.833 475.404 587.193 475.204C587.561 475.004 587.957 474.904 588.381 474.904C589.125 474.904 589.709 475.128 590.133 475.576C590.557 476.024 590.769 476.692 590.769 477.58V481H589.497V477.712C589.497 476.56 589.057 475.984 588.177 475.984C587.729 475.984 587.361 476.152 587.073 476.488C586.793 476.824 586.653 477.304 586.653 477.928V481H585.381V477.712C585.381 476.56 584.937 475.984 584.049 475.984C583.609 475.984 583.245 476.152 582.957 476.488C582.677 476.824 582.537 477.304 582.537 477.928V481H581.265ZM594.273 481.144C593.769 481.144 593.353 481.06 593.025 480.892C592.697 480.724 592.453 480.504 592.293 480.232C592.133 479.952 592.053 479.648 592.053 479.32C592.053 478.744 592.277 478.288 592.725 477.952C593.173 477.616 593.813 477.448 594.645 477.448H596.205V477.34C596.205 476.876 596.077 476.528 595.821 476.296C595.573 476.064 595.249 475.948 594.849 475.948C594.497 475.948 594.189 476.036 593.925 476.212C593.669 476.38 593.513 476.632 593.457 476.968H592.185C592.225 476.536 592.369 476.168 592.617 475.864C592.873 475.552 593.193 475.316 593.577 475.156C593.969 474.988 594.397 474.904 594.861 474.904C595.693 474.904 596.337 475.124 596.793 475.564C597.249 475.996 597.477 476.588 597.477 477.34V481H596.373L596.265 479.98C596.097 480.308 595.853 480.584 595.533 480.808C595.213 481.032 594.793 481.144 594.273 481.144ZM594.525 480.112C594.869 480.112 595.157 480.032 595.389 479.872C595.629 479.704 595.813 479.484 595.941 479.212C596.077 478.94 596.161 478.64 596.193 478.312H594.777C594.273 478.312 593.913 478.4 593.697 478.576C593.489 478.752 593.385 478.972 593.385 479.236C593.385 479.508 593.485 479.724 593.685 479.884C593.893 480.036 594.173 480.112 594.525 480.112ZM599.68 473.92C599.44 473.92 599.24 473.848 599.08 473.704C598.928 473.552 598.852 473.364 598.852 473.14C598.852 472.916 598.928 472.732 599.08 472.588C599.24 472.436 599.44 472.36 599.68 472.36C599.92 472.36 600.116 472.436 600.268 472.588C600.428 472.732 600.508 472.916 600.508 473.14C600.508 473.364 600.428 473.552 600.268 473.704C600.116 473.848 599.92 473.92 599.68 473.92ZM599.044 481V475.048H600.316V481H599.044ZM601.995 481V472.36H603.267V481H601.995ZM608.622 473.92C608.382 473.92 608.182 473.848 608.022 473.704C607.87 473.552 607.794 473.364 607.794 473.14C607.794 472.916 607.87 472.732 608.022 472.588C608.182 472.436 608.382 472.36 608.622 472.36C608.862 472.36 609.058 472.436 609.21 472.588C609.37 472.732 609.45 472.916 609.45 473.14C609.45 473.364 609.37 473.552 609.21 473.704C609.058 473.848 608.862 473.92 608.622 473.92ZM607.986 481V475.048H609.258V481H607.986ZM613.649 481.144C613.073 481.144 612.565 481.008 612.125 480.736C611.685 480.464 611.341 480.092 611.093 479.62C610.845 479.148 610.721 478.612 610.721 478.012C610.721 477.412 610.845 476.88 611.093 476.416C611.341 475.944 611.685 475.576 612.125 475.312C612.573 475.04 613.085 474.904 613.661 474.904C614.133 474.904 614.545 474.996 614.897 475.18C615.257 475.364 615.537 475.624 615.737 475.96V472.36H617.009V481H615.869L615.737 480.076C615.545 480.356 615.281 480.604 614.945 480.82C614.609 481.036 614.177 481.144 613.649 481.144ZM613.877 480.04C614.421 480.04 614.865 479.852 615.209 479.476C615.561 479.1 615.737 478.616 615.737 478.024C615.737 477.424 615.561 476.94 615.209 476.572C614.865 476.196 614.421 476.008 613.877 476.008C613.333 476.008 612.885 476.196 612.533 476.572C612.181 476.94 612.005 477.424 612.005 478.024C612.005 478.416 612.085 478.764 612.245 479.068C612.405 479.372 612.625 479.612 612.905 479.788C613.193 479.956 613.517 480.04 613.877 480.04Z" fill="#1A142D"/>
<path d="M561.852 536V527.6H567.192V528.632H563.124V531.248H566.832V532.256H563.124V534.968H567.192V536H561.852ZM568.659 536V530.048H569.787L569.883 531.092C570.067 530.724 570.335 530.436 570.687 530.228C571.047 530.012 571.459 529.904 571.923 529.904C572.643 529.904 573.207 530.128 573.615 530.576C574.031 531.024 574.239 531.692 574.239 532.58V536H572.979V532.712C572.979 531.56 572.507 530.984 571.563 530.984C571.091 530.984 570.699 531.152 570.387 531.488C570.083 531.824 569.931 532.304 569.931 532.928V536H568.659ZM578.234 536C577.65 536 577.186 535.86 576.842 535.58C576.498 535.292 576.326 534.784 576.326 534.056V531.116H575.306V530.048H576.326L576.482 528.536H577.598V530.048H579.278V531.116H577.598V534.056C577.598 534.384 577.666 534.612 577.802 534.74C577.946 534.86 578.19 534.92 578.534 534.92H579.218V536H578.234ZM583.221 536.144C582.637 536.144 582.117 536.016 581.661 535.76C581.213 535.496 580.861 535.132 580.605 534.668C580.349 534.204 580.221 533.664 580.221 533.048C580.221 532.424 580.345 531.876 580.593 531.404C580.849 530.932 581.201 530.564 581.649 530.3C582.105 530.036 582.633 529.904 583.233 529.904C583.817 529.904 584.325 530.036 584.757 530.3C585.189 530.556 585.525 530.9 585.765 531.332C586.005 531.764 586.125 532.24 586.125 532.76C586.125 532.84 586.121 532.928 586.113 533.024C586.113 533.112 586.109 533.212 586.101 533.324H581.469C581.509 533.9 581.697 534.34 582.033 534.644C582.377 534.94 582.773 535.088 583.221 535.088C583.581 535.088 583.881 535.008 584.121 534.848C584.369 534.68 584.553 534.456 584.673 534.176H585.945C585.785 534.736 585.465 535.204 584.985 535.58C584.513 535.956 583.925 536.144 583.221 536.144ZM583.221 530.948C582.797 530.948 582.421 531.076 582.093 531.332C581.765 531.58 581.565 531.956 581.493 532.46H584.853C584.829 531.996 584.665 531.628 584.361 531.356C584.057 531.084 583.677 530.948 583.221 530.948ZM587.445 536V530.048H588.585L588.693 531.176C588.901 530.784 589.189 530.476 589.557 530.252C589.933 530.02 590.385 529.904 590.913 529.904V531.236H590.565C590.213 531.236 589.897 531.296 589.617 531.416C589.345 531.528 589.125 531.724 588.957 532.004C588.797 532.276 588.717 532.656 588.717 533.144V536H587.445ZM595.723 538.64L597.151 535.508H596.803L594.451 530.048H595.831L597.655 534.452L599.563 530.048H600.907L597.067 538.64H595.723ZM604.197 536.144C603.629 536.144 603.117 536.016 602.661 535.76C602.213 535.496 601.857 535.132 601.593 534.668C601.329 534.196 601.197 533.648 601.197 533.024C601.197 532.4 601.329 531.856 601.593 531.392C601.865 530.92 602.229 530.556 602.685 530.3C603.141 530.036 603.649 529.904 604.209 529.904C604.777 529.904 605.285 530.036 605.733 530.3C606.189 530.556 606.549 530.92 606.813 531.392C607.085 531.856 607.221 532.4 607.221 533.024C607.221 533.648 607.085 534.196 606.813 534.668C606.549 535.132 606.189 535.496 605.733 535.76C605.277 536.016 604.765 536.144 604.197 536.144ZM604.197 535.052C604.501 535.052 604.781 534.976 605.037 534.824C605.301 534.672 605.513 534.448 605.673 534.152C605.833 533.848 605.913 533.472 605.913 533.024C605.913 532.576 605.833 532.204 605.673 531.908C605.521 531.604 605.313 531.376 605.049 531.224C604.793 531.072 604.513 530.996 604.209 530.996C603.905 530.996 603.621 531.072 603.357 531.224C603.101 531.376 602.893 531.604 602.733 531.908C602.573 532.204 602.493 532.576 602.493 533.024C602.493 533.472 602.573 533.848 602.733 534.152C602.893 534.448 603.101 534.672 603.357 534.824C603.613 534.976 603.893 535.052 604.197 535.052ZM610.793 536.144C610.073 536.144 609.505 535.92 609.089 535.472C608.681 535.024 608.477 534.356 608.477 533.468V530.048H609.749V533.336C609.749 534.488 610.221 535.064 611.165 535.064C611.637 535.064 612.025 534.896 612.329 534.56C612.633 534.224 612.785 533.744 612.785 533.12V530.048H614.057V536H612.929L612.833 534.956C612.649 535.324 612.377 535.616 612.017 535.832C611.665 536.04 611.257 536.144 610.793 536.144ZM615.675 536V530.048H616.815L616.923 531.176C617.131 530.784 617.419 530.476 617.787 530.252C618.163 530.02 618.615 529.904 619.143 529.904V531.236H618.795C618.443 531.236 618.127 531.296 617.847 531.416C617.575 531.528 617.355 531.724 617.187 532.004C617.027 532.276 616.947 532.656 616.947 533.144V536H615.675ZM626.041 536.144C625.457 536.144 624.937 536.016 624.481 535.76C624.033 535.496 623.681 535.132 623.425 534.668C623.169 534.204 623.041 533.664 623.041 533.048C623.041 532.424 623.165 531.876 623.413 531.404C623.669 530.932 624.021 530.564 624.469 530.3C624.925 530.036 625.453 529.904 626.053 529.904C626.637 529.904 627.145 530.036 627.577 530.3C628.009 530.556 628.345 530.9 628.585 531.332C628.825 531.764 628.945 532.24 628.945 532.76C628.945 532.84 628.941 532.928 628.933 533.024C628.933 533.112 628.929 533.212 628.921 533.324H624.289C624.329 533.9 624.517 534.34 624.853 534.644C625.197 534.94 625.593 535.088 626.041 535.088C626.401 535.088 626.701 535.008 626.941 534.848C627.189 534.68 627.373 534.456 627.493 534.176H628.765C628.605 534.736 628.285 535.204 627.805 535.58C627.333 535.956 626.745 536.144 626.041 536.144ZM626.041 530.948C625.617 530.948 625.241 531.076 624.913 531.332C624.585 531.58 624.385 531.956 624.313 532.46H627.673C627.649 531.996 627.485 531.628 627.181 531.356C626.877 531.084 626.497 530.948 626.041 530.948ZM630.265 536V530.048H631.393L631.501 530.888C631.693 530.584 631.945 530.344 632.257 530.168C632.577 529.992 632.945 529.904 633.361 529.904C634.305 529.904 634.961 530.276 635.329 531.02C635.545 530.676 635.833 530.404 636.193 530.204C636.561 530.004 636.957 529.904 637.381 529.904C638.125 529.904 638.709 530.128 639.133 530.576C639.557 531.024 639.769 531.692 639.769 532.58V536H638.497V532.712C638.497 531.56 638.057 530.984 637.177 530.984C636.729 530.984 636.361 531.152 636.073 531.488C635.793 531.824 635.653 532.304 635.653 532.928V536H634.381V532.712C634.381 531.56 633.937 530.984 633.049 530.984C632.609 530.984 632.245 531.152 631.957 531.488C631.677 531.824 631.537 532.304 631.537 532.928V536H630.265ZM643.273 536.144C642.769 536.144 642.353 536.06 642.025 535.892C641.697 535.724 641.453 535.504 641.293 535.232C641.133 534.952 641.053 534.648 641.053 534.32C641.053 533.744 641.277 533.288 641.725 532.952C642.173 532.616 642.813 532.448 643.645 532.448H645.205V532.34C645.205 531.876 645.077 531.528 644.821 531.296C644.573 531.064 644.249 530.948 643.849 530.948C643.497 530.948 643.189 531.036 642.925 531.212C642.669 531.38 642.513 531.632 642.457 531.968H641.185C641.225 531.536 641.369 531.168 641.617 530.864C641.873 530.552 642.193 530.316 642.577 530.156C642.969 529.988 643.397 529.904 643.861 529.904C644.693 529.904 645.337 530.124 645.793 530.564C646.249 530.996 646.477 531.588 646.477 532.34V536H645.373L645.265 534.98C645.097 535.308 644.853 535.584 644.533 535.808C644.213 536.032 643.793 536.144 643.273 536.144ZM643.525 535.112C643.869 535.112 644.157 535.032 644.389 534.872C644.629 534.704 644.813 534.484 644.941 534.212C645.077 533.94 645.161 533.64 645.193 533.312H643.777C643.273 533.312 642.913 533.4 642.697 533.576C642.489 533.752 642.385 533.972 642.385 534.236C642.385 534.508 642.485 534.724 642.685 534.884C642.893 535.036 643.173 535.112 643.525 535.112ZM648.68 528.92C648.44 528.92 648.24 528.848 648.08 528.704C647.928 528.552 647.852 528.364 647.852 528.14C647.852 527.916 647.928 527.732 648.08 527.588C648.24 527.436 648.44 527.36 648.68 527.36C648.92 527.36 649.116 527.436 649.268 527.588C649.428 527.732 649.508 527.916 649.508 528.14C649.508 528.364 649.428 528.552 649.268 528.704C649.116 528.848 648.92 528.92 648.68 528.92ZM648.044 536V530.048H649.316V536H648.044ZM650.995 536V527.36H652.267V536H650.995ZM658.918 536.144C658.414 536.144 657.998 536.06 657.67 535.892C657.342 535.724 657.098 535.504 656.938 535.232C656.778 534.952 656.698 534.648 656.698 534.32C656.698 533.744 656.922 533.288 657.37 532.952C657.818 532.616 658.458 532.448 659.29 532.448H660.85V532.34C660.85 531.876 660.722 531.528 660.466 531.296C660.218 531.064 659.894 530.948 659.494 530.948C659.142 530.948 658.834 531.036 658.57 531.212C658.314 531.38 658.158 531.632 658.102 531.968H656.83C656.87 531.536 657.014 531.168 657.262 530.864C657.518 530.552 657.838 530.316 658.222 530.156C658.614 529.988 659.042 529.904 659.506 529.904C660.338 529.904 660.982 530.124 661.438 530.564C661.894 530.996 662.122 531.588 662.122 532.34V536H661.018L660.91 534.98C660.742 535.308 660.498 535.584 660.178 535.808C659.858 536.032 659.438 536.144 658.918 536.144ZM659.17 535.112C659.514 535.112 659.802 535.032 660.034 534.872C660.274 534.704 660.458 534.484 660.586 534.212C660.722 533.94 660.806 533.64 660.838 533.312H659.422C658.918 533.312 658.558 533.4 658.342 533.576C658.134 533.752 658.03 533.972 658.03 534.236C658.03 534.508 658.13 534.724 658.33 534.884C658.538 535.036 658.818 535.112 659.17 535.112ZM666.317 536.144C665.741 536.144 665.233 536.008 664.793 535.736C664.353 535.464 664.009 535.092 663.761 534.62C663.513 534.148 663.389 533.612 663.389 533.012C663.389 532.412 663.513 531.88 663.761 531.416C664.009 530.944 664.353 530.576 664.793 530.312C665.241 530.04 665.753 529.904 666.329 529.904C666.801 529.904 667.213 529.996 667.565 530.18C667.925 530.364 668.205 530.624 668.405 530.96V527.36H669.677V536H668.537L668.405 535.076C668.213 535.356 667.949 535.604 667.613 535.82C667.277 536.036 666.845 536.144 666.317 536.144ZM666.545 535.04C667.089 535.04 667.533 534.852 667.877 534.476C668.229 534.1 668.405 533.616 668.405 533.024C668.405 532.424 668.229 531.94 667.877 531.572C667.533 531.196 667.089 531.008 666.545 531.008C666.001 531.008 665.553 531.196 665.201 531.572C664.849 531.94 664.673 532.424 664.673 533.024C664.673 533.416 664.753 533.764 664.913 534.068C665.073 534.372 665.293 534.612 665.573 534.788C665.861 534.956 666.185 535.04 666.545 535.04ZM673.993 536.144C673.417 536.144 672.909 536.008 672.469 535.736C672.029 535.464 671.685 535.092 671.437 534.62C671.189 534.148 671.065 533.612 671.065 533.012C671.065 532.412 671.189 531.88 671.437 531.416C671.685 530.944 672.029 530.576 672.469 530.312C672.917 530.04 673.429 529.904 674.005 529.904C674.477 529.904 674.889 529.996 675.241 530.18C675.601 530.364 675.881 530.624 676.081 530.96V527.36H677.353V536H676.213L676.081 535.076C675.889 535.356 675.625 535.604 675.289 535.82C674.953 536.036 674.521 536.144 673.993 536.144ZM674.221 535.04C674.765 535.04 675.209 534.852 675.553 534.476C675.905 534.1 676.081 533.616 676.081 533.024C676.081 532.424 675.905 531.94 675.553 531.572C675.209 531.196 674.765 531.008 674.221 531.008C673.677 531.008 673.229 531.196 672.877 531.572C672.525 531.94 672.349 532.424 672.349 533.024C672.349 533.416 672.429 533.764 672.589 534.068C672.749 534.372 672.969 534.612 673.249 534.788C673.537 534.956 673.861 535.04 674.221 535.04ZM678.956 536V530.048H680.096L680.204 531.176C680.412 530.784 680.7 530.476 681.068 530.252C681.444 530.02 681.896 529.904 682.424 529.904V531.236H682.076C681.724 531.236 681.408 531.296 681.128 531.416C680.856 531.528 680.636 531.724 680.468 532.004C680.308 532.276 680.228 532.656 680.228 533.144V536H678.956ZM686.135 536.144C685.551 536.144 685.031 536.016 684.575 535.76C684.127 535.496 683.775 535.132 683.519 534.668C683.263 534.204 683.135 533.664 683.135 533.048C683.135 532.424 683.259 531.876 683.507 531.404C683.763 530.932 684.115 530.564 684.563 530.3C685.019 530.036 685.547 529.904 686.147 529.904C686.731 529.904 687.239 530.036 687.671 530.3C688.103 530.556 688.439 530.9 688.679 531.332C688.919 531.764 689.039 532.24 689.039 532.76C689.039 532.84 689.035 532.928 689.027 533.024C689.027 533.112 689.023 533.212 689.015 533.324H684.383C684.423 533.9 684.611 534.34 684.947 534.644C685.291 534.94 685.687 535.088 686.135 535.088C686.495 535.088 686.795 535.008 687.035 534.848C687.283 534.68 687.467 534.456 687.587 534.176H688.859C688.699 534.736 688.379 535.204 687.899 535.58C687.427 535.956 686.839 536.144 686.135 536.144ZM686.135 530.948C685.711 530.948 685.335 531.076 685.007 531.332C684.679 531.58 684.479 531.956 684.407 532.46H687.767C687.743 531.996 687.579 531.628 687.275 531.356C686.971 531.084 686.591 530.948 686.135 530.948ZM692.735 536.144C691.983 536.144 691.363 535.96 690.875 535.592C690.387 535.224 690.107 534.736 690.035 534.128H691.319C691.383 534.4 691.535 534.636 691.775 534.836C692.015 535.028 692.331 535.124 692.723 535.124C693.107 535.124 693.387 535.044 693.563 534.884C693.739 534.724 693.827 534.54 693.827 534.332C693.827 534.028 693.703 533.824 693.455 533.72C693.215 533.608 692.879 533.508 692.447 533.42C692.111 533.348 691.775 533.252 691.439 533.132C691.111 533.012 690.835 532.844 690.611 532.628C690.395 532.404 690.287 532.104 690.287 531.728C690.287 531.208 690.487 530.776 690.887 530.432C691.287 530.08 691.847 529.904 692.567 529.904C693.231 529.904 693.767 530.064 694.175 530.384C694.591 530.704 694.835 531.156 694.907 531.74H693.683C693.643 531.484 693.523 531.284 693.323 531.14C693.131 530.996 692.871 530.924 692.543 530.924C692.223 530.924 691.975 530.992 691.799 531.128C691.623 531.256 691.535 531.424 691.535 531.632C691.535 531.84 691.655 532.004 691.895 532.124C692.143 532.244 692.467 532.352 692.867 532.448C693.267 532.536 693.635 532.64 693.971 532.76C694.315 532.872 694.591 533.04 694.799 533.264C695.007 533.488 695.111 533.816 695.111 534.248C695.119 534.792 694.907 535.244 694.475 535.604C694.051 535.964 693.471 536.144 692.735 536.144ZM698.875 536.144C698.123 536.144 697.503 535.96 697.015 535.592C696.527 535.224 696.247 534.736 696.175 534.128H697.459C697.523 534.4 697.675 534.636 697.915 534.836C698.155 535.028 698.471 535.124 698.863 535.124C699.247 535.124 699.527 535.044 699.703 534.884C699.879 534.724 699.967 534.54 699.967 534.332C699.967 534.028 699.843 533.824 699.595 533.72C699.355 533.608 699.019 533.508 698.587 533.42C698.251 533.348 697.915 533.252 697.579 533.132C697.251 533.012 696.975 532.844 696.751 532.628C696.535 532.404 696.427 532.104 696.427 531.728C696.427 531.208 696.627 530.776 697.027 530.432C697.427 530.08 697.987 529.904 698.707 529.904C699.371 529.904 699.907 530.064 700.315 530.384C700.731 530.704 700.975 531.156 701.047 531.74H699.823C699.783 531.484 699.663 531.284 699.463 531.14C699.271 530.996 699.011 530.924 698.683 530.924C698.363 530.924 698.115 530.992 697.939 531.128C697.763 531.256 697.675 531.424 697.675 531.632C697.675 531.84 697.795 532.004 698.035 532.124C698.283 532.244 698.607 532.352 699.007 532.448C699.407 532.536 699.775 532.64 700.111 532.76C700.455 532.872 700.731 533.04 700.939 533.264C701.147 533.488 701.251 533.816 701.251 534.248C701.259 534.792 701.047 535.244 700.615 535.604C700.191 535.964 699.611 536.144 698.875 536.144Z" fill="#222222"/>
</g>
<defs>
<filter id="filter0_f_10_28126" x="-35.3809" y="-303.473" width="1509.33" height="1507.39" filterUnits="userSpaceOnUse" color-interpolation-filters="sRGB">
<feFlood flood-opacity="0" result="BackgroundImageFix"/>
<feBlend mode="normal" in="SourceGraphic" in2="BackgroundImageFix" result="shape"/>
<feGaussianBlur stdDeviation="250" result="effect1_foregroundBlur_10_28126"/>
</filter>
<filter id="filter1_f_10_28126" x="271.957" y="-333.473" width="1509.33" height="1507.39" filterUnits="userSpaceOnUse" color-interpolation-filters="sRGB">
<feFlood flood-opacity="0" result="BackgroundImageFix"/>
<feBlend mode="normal" in="SourceGraphic" in2="BackgroundImageFix" result="shape"/>
<feGaussianBlur stdDeviation="250" result="effect1_foregroundBlur_10_28126"/>
</filter>
<linearGradient id="paint0_linear_10_28126" x1="722.014" y1="198.301" x2="716.647" y2="703.272" gradientUnits="userSpaceOnUse">
<stop stop-color="#2D1E40"/>
<stop offset="1" stop-color="#4E4376"/>
</linearGradient>
<linearGradient id="paint1_linear_10_28126" x1="1029.35" y1="168.301" x2="1023.99" y2="673.272" gradientUnits="userSpaceOnUse">
<stop stop-color="#2D1E40"/>
<stop offset="1" stop-color="#4E4376"/>
</linearGradient>
<clipPath id="clip0_10_28126">
<rect width="1440" height="816" fill="white"/>
</clipPath>
</defs>
</svg>
