<svg width="323" height="250" viewBox="0 0 323 250" fill="none" xmlns="http://www.w3.org/2000/svg">
<path d="M55.5123 227.189C55.3416 226.905 55.1661 226.62 54.9858 226.34C54.4403 225.486 53.8379 224.656 53.1975 223.864C51.229 221.426 48.9285 219.434 46.367 217.949C43.4166 216.237 40.3381 215.962 37.0794 215.667C33.944 215.388 30.6995 215.094 27.6115 213.405C24.7702 211.854 22.5787 208.908 20.4584 206.062C18.3476 203.23 16.1703 200.299 13.4097 198.876C9.28289 196.741 2.13929 196.902 0.0474372 197.002L0 196.053C2.75593 195.921 9.62442 195.849 13.8413 198.031C16.7917 199.554 19.0401 202.576 21.2126 205.493C23.2713 208.258 25.4011 211.119 28.0621 212.57C30.9793 214.169 34.1195 214.448 37.16 214.724C40.3761 215.013 43.7059 215.312 46.8414 217.128C49.5024 218.675 51.8884 220.738 53.9328 223.271C54.5921 224.092 55.2135 224.95 55.778 225.828C55.9677 226.113 56.148 226.411 56.3235 226.705L55.5123 227.189Z" fill="white"/>
<path d="M61.2658 187.828L60.3646 187.539C61.8777 182.829 63.3102 177.274 62.4943 171.786C61.6405 166.065 58.1494 161.331 53.6052 159.719C52.0968 159.187 50.4508 158.974 48.857 158.77C47.23 158.561 45.5461 158.343 43.957 157.788L44.2701 156.892C45.769 157.413 47.4008 157.622 48.9803 157.826C50.6216 158.04 52.3197 158.258 53.923 158.822C58.7945 160.549 62.5275 165.582 63.4335 171.644C64.2779 177.331 62.8122 183.014 61.2658 187.828Z" fill="#633F3F"/>
<path d="M162.673 250C250.813 250 322.265 245.309 322.265 239.522C322.265 233.735 250.813 229.043 162.673 229.043C74.5321 229.043 3.08008 233.735 3.08008 239.522C3.08008 245.309 74.5321 250 162.673 250Z" fill="#E4EDFC"/>
<path d="M259.59 126.606L175.281 177.242L91.0752 126.62L259.59 126.606Z" fill="#2E2E2E"/>
<path d="M260.017 126.629L180.408 66.3829C177.339 64.0587 173.131 64.0634 170.062 66.3877L90.6621 126.629H260.017Z" fill="#2E2E2E"/>
<path d="M241.752 112.805L180.396 66.3712C177.327 64.0469 173.12 64.0517 170.051 66.376L98.0596 120.997L241.752 112.805Z" fill="#2E2E2E"/>
<path d="M106.286 39.1184V38.9002C106.286 28.7635 98.0652 20.5479 87.9285 20.5479C77.7965 20.5479 69.5762 28.7635 69.5762 38.9002V39.1184H106.286Z" fill="#2E2E2E"/>
<path d="M107.601 201.542L107.601 201.539L106.747 38.8947C106.747 38.8943 106.747 38.8939 106.747 38.8935C106.746 30.6062 101.397 23.566 93.9637 21.0376H225.677C235.537 21.0376 243.534 29.0341 243.534 38.8947L243.534 38.8979L244.384 171.547H244.383V172.047V201.542C244.384 204.03 244.018 206.408 243.618 208.597C243.533 209.058 243.447 209.513 243.362 209.959C243.048 211.611 242.756 213.151 242.665 214.488C242.548 216.183 242.739 217.71 243.751 218.797C243.961 219.022 244.2 219.223 244.471 219.399H125.458C115.597 219.399 107.601 211.403 107.601 201.542Z" fill="white" stroke="#2E2E2E"/>
<path d="M139.171 180.267H124.11V180.979H139.171V180.267Z" fill="#5E3B3B"/>
<path d="M198.679 180.267H146.572V180.979H198.679V180.267Z" fill="#5E3B3B"/>
<path d="M139.171 81.938H124.11V82.6495H139.171V81.938Z" fill="#5B5B5B"/>
<path d="M190.122 81.9385H146.572V82.65H190.122V81.9385Z" fill="#5B5B5B"/>
<path d="M161.256 88.3589H124.11V89.0704H161.256V88.3589Z" fill="#5B5B5B"/>
<path d="M139.171 153.617H124.11V154.329H139.171V153.617Z" fill="#5B5B5B"/>
<path d="M198.679 153.607H146.572V154.318H198.679V153.607Z" fill="#5B5B5B"/>
<path d="M161.256 160.027H124.11V160.739H161.256V160.027Z" fill="#5B5B5B"/>
<path d="M215.021 160.03H168.46V160.741H215.021V160.03Z" fill="#5B5B5B"/>
<path d="M148.145 139.995H124.11V140.707H148.145V139.995Z" fill="#5B5B5B"/>
<path d="M162.47 146.404H124.11V147.116H162.47V146.404Z" fill="#5B5B5B"/>
<path d="M186.487 146.405H169.79V147.116H186.487V146.405Z" fill="#5B5B5B"/>
<path d="M162.47 75.4438H124.11V76.1554H162.47V75.4438Z" fill="#5B5B5B"/>
<path d="M186.95 75.4443H170.253V76.1559H186.95V75.4443Z" fill="#5B5B5B"/>
<path d="M171.952 139.998H155.255V140.709H171.952V139.998Z" fill="#5B5B5B"/>
<path d="M220.869 139.998H179.141V140.71H220.869V139.998Z" fill="#5B5B5B"/>
<path d="M148.145 166.631H124.11V167.342H148.145V166.631Z" fill="#5E3B3B"/>
<path d="M162.47 173.052H124.11V173.763H162.47V173.052Z" fill="#5E3B3B"/>
<path d="M186.487 173.052H169.79V173.764H186.487V173.052Z" fill="#5E3B3B"/>
<path d="M171.952 166.642H155.255V167.354H171.952V166.642Z" fill="#5B5B5B"/>
<path d="M220.869 166.644H179.141V167.356H220.869V166.644Z" fill="#5B5B5B"/>
<path d="M220.48 75.4443H194.448V76.1559H220.48V75.4443Z" fill="#5B5B5B"/>
<path d="M171.287 49.2617H124.09V55.3807H171.287V49.2617Z" fill="#5B5B5B"/>
<path d="M171.287 59.1016H124.09V61.3215H171.287V59.1016Z" fill="#5B5B5B"/>
<path d="M233.735 95.1357H124.114V133.648H233.735V95.1357Z" fill="#DCE7F9"/>
<path d="M55.3066 24.6031L54.8516 25.4355L61.9817 29.3325L62.4367 28.5001L55.3066 24.6031Z" fill="#5E3B3B"/>
<path d="M61.2336 33.0262L53.1406 33.7559L53.2258 34.7007L61.3188 33.9711L61.2336 33.0262Z" fill="#5E3B3B"/>
<path d="M176.056 233.026H98.9614C94.3556 233.026 90.6035 229.203 90.6035 224.503V164.37H91.5522V224.503C91.5522 228.677 94.8773 232.078 98.9614 232.078H176.056V233.026Z" fill="#633F3F"/>
<path d="M251.814 233.02H242.342V232.071H251.814C255.899 232.071 259.224 228.675 259.224 224.496V180.254H260.172V224.496C260.168 229.197 256.42 233.02 251.814 233.02Z" fill="#5E3B3B"/>
<path d="M196.347 20.9047L199.72 20.9L201.646 4.83398L194.379 4.84347L196.347 20.9047Z" fill="white"/>
<path d="M200.167 24.6061C200.167 25.7872 199.209 26.7454 198.028 26.7454C196.847 26.7454 195.889 25.7872 195.889 24.6061C195.889 23.425 196.847 22.4668 198.028 22.4668C199.209 22.4621 200.167 23.4202 200.167 24.6061Z" fill="white"/>
<path d="M252.748 15.8265L245.57 19.6357L246.015 20.4737L253.192 16.6645L252.748 15.8265Z" fill="#5E3B3B"/>
<path d="M245.921 9.38132L242.079 16.5415L242.915 16.99L246.757 9.82986L245.921 9.38132Z" fill="#5E3B3B"/>
<path d="M225.001 151.322L226.367 149.306L229.033 151.042L227.881 153.105C227.634 153.546 227.53 154.054 227.587 154.561C227.587 154.561 227.994 157.132 227.947 157.664C227.904 158.109 226.775 160.287 226.372 160.491C226.097 160.628 225.646 160.329 225.646 160.329C225.646 160.329 226.496 156.089 226.012 155.244C225.813 154.898 225.452 154.41 225.096 153.949C224.489 153.186 224.456 152.123 225.001 151.322Z" fill="#FFB789"/>
<path d="M207.462 115.577L209.848 114.704L211.869 107.489L216.968 107.513L218.244 115.069L221.725 115.937C221.725 115.937 219.32 119.637 214.416 119.637C208.373 119.642 207.462 115.577 207.462 115.577Z" fill="#FFB284"/>
<path d="M215.831 109.713C213.929 111.132 210.679 111.113 209.019 110.7C207.259 110.264 205.433 109.177 207.829 104.154C209.479 100.696 209.337 99.79 210.02 98.2437C210.466 97.2286 211.595 96.517 213.672 96.721C217.183 97.0578 222.049 105.084 215.831 109.713Z" fill="#FFB284"/>
<path d="M228.708 152.945C228.708 152.945 238.048 145.825 238.835 138.179C239.381 132.895 232.228 120.619 226.996 117.256C225.297 116.165 221.778 114.599 219.885 114.414C216.911 114.12 214.217 114.058 208.752 114.737C206.656 114.998 205.403 114.637 202.13 116.677C197.937 119.29 190.153 129.532 190.153 129.532L202.481 134.237L220.668 128.246L229.144 138.905L224.301 149.805C225.914 150.682 227.422 151.683 228.708 152.945Z" fill="#F75D59"/>
<path d="M202.961 236.64C203.008 242.033 201.704 245.197 201.704 245.197H182.023C182.023 245.197 183.489 241.796 190.775 240.995C195.153 240.511 195.651 236.645 195.651 236.645H202.961V236.64Z" fill="#4A292F"/>
<path d="M231.487 236.646C232.645 241.157 232.839 245.203 232.839 245.203H212.442C212.442 245.203 213.908 241.802 221.194 241C225.572 240.516 224.178 236.65 224.178 236.65H231.487V236.646Z" fill="#4A292F"/>
<path d="M216.157 146.086C219.8 146.153 222.717 145.745 222.717 145.745C222.717 145.745 230.15 158.623 222.717 165.392L235.059 236.761C235.059 236.761 231.582 240.983 211.309 237.815L209.587 181.738L216.157 146.086Z" fill="#5E3B3B"/>
<path d="M217.142 238.574C215.373 238.393 213.433 238.142 211.308 237.81L209.586 181.733L209.88 180.125L212.437 177.407L217.142 238.574Z" fill="#4A292F"/>
<path d="M213.07 148.16C213.07 148.16 203.014 145.898 203.014 146.225C203.014 146.5 195.401 171.503 190.145 195.21C185.383 216.684 183.879 237.095 183.879 237.095C193.342 241.843 207.051 238.148 207.051 238.148L205.926 197.207L216.741 165.384C216.741 165.384 223.112 160.986 218.672 145.869L213.07 148.16Z" fill="#77B6F3"/>
<path d="M216.114 150.385L209.361 181.683L209.825 181.783L216.578 150.485L216.114 150.385Z" fill="white"/>
<path d="M224.409 239.348C221.084 239.348 216.782 239.03 211.246 238.167L211.355 237.464C229.224 240.254 233.929 237.237 234.669 236.634L222.327 165.255L222.469 165.122C229.603 158.624 222.474 146.044 222.403 145.916L223.019 145.561C223.095 145.693 230.414 158.6 223.095 165.516L235.433 236.857L235.328 236.985C235.219 237.113 233.241 239.348 224.409 239.348Z" fill="white"/>
<path d="M203.008 146.223C203.008 146.498 194.939 170.747 190.139 195.209C185.903 216.796 183.873 237.093 183.873 237.093C193.336 241.841 207.045 238.146 207.045 238.146L205.92 197.206L216.736 165.382C216.736 165.382 223.694 160.482 219.25 145.365C219.25 145.369 203.008 145.896 203.008 146.223Z" fill="#5E3B3B"/>
<path d="M195.84 239.862C191.855 239.862 187.444 239.293 183.706 237.419L184.024 236.783C192.529 241.048 204.71 238.358 206.674 237.879L205.554 197.157L205.573 197.095L216.426 165.162L216.521 165.096C216.569 165.063 221.189 161.69 219.495 151.107L220.197 150.994C221.853 161.325 217.745 165.039 217.024 165.603L206.266 197.261L207.395 238.42L207.124 238.491C207.044 238.519 201.949 239.862 195.84 239.862Z" fill="white"/>
<path d="M200.5 112.478C200.647 112.06 201.074 110.704 201.401 110.433C201.704 110.177 203.526 109.034 203.232 108.636C202.923 108.213 201.842 109.285 201.652 108.916C201.534 108.688 203.611 106.544 203.094 106.212C202.753 105.994 201.676 107.483 201.538 107.303C201.41 107.137 203.123 105.619 202.634 105.268C202.122 104.903 201.368 106.824 201.14 106.639C201.026 106.549 202.387 104.765 201.979 104.49C201.434 104.125 200.395 106.373 200.139 106.226C200.011 106.155 200.519 105.439 200.765 104.969C200.903 104.708 200.713 104.537 200.552 104.642C198.839 105.723 197.948 109.3 197.729 109.57C197.402 109.969 197.089 110.372 196.795 110.77L200.5 112.478Z" fill="#FFB789"/>
<path d="M201.754 146.679L204.918 148.463L207.703 147.694L210.288 149.653L222.962 146.584L226.231 143.254L225.272 141.328L227.563 136.836C227.563 136.836 227.44 128.199 227.141 124.921L200.113 129.693L201.754 146.679Z" fill="#F75D59"/>
<path d="M219.185 141.33L218.487 141.188C218.976 138.792 219.649 135.007 220.076 130.582L220.783 130.648C220.351 135.112 219.673 138.92 219.185 141.33Z" fill="#633F3F"/>
<path d="M210.428 115.241L202.838 132.683C202.838 132.683 193.683 141.169 188.627 139.058C184.249 137.227 183.499 133.584 184.856 129.827C186.445 125.411 196.34 110.114 196.34 110.114C197.995 111.361 199.651 112.291 201.306 112.538L197.094 127.214L210.428 115.241Z" fill="#F75D59"/>
<path d="M224.444 145.62L223.932 145.127L225.815 143.187L224.88 141.308L224.985 141.142C225.81 139.814 227.148 137.462 227.224 136.797C227.475 134.682 227.342 130.389 227.243 127.258C227.214 126.386 227.19 125.593 227.176 124.934L227.888 124.92C227.902 125.575 227.926 126.367 227.954 127.235C228.049 130.389 228.186 134.71 227.93 136.878C227.817 137.827 226.166 140.573 225.691 141.346L226.673 143.324L224.444 145.62Z" fill="#633F3F"/>
<path d="M190.458 129.739L189.884 129.317C190.197 128.89 197.63 118.81 201.97 116.362L202.321 116.984C198.114 119.355 190.534 129.639 190.458 129.739Z" fill="#633F3F"/>
<path d="M202.269 116.866L202.013 116.468C204.584 114.836 206.509 114.675 208.374 114.518L208.744 114.485L208.786 114.959L208.416 114.992C206.609 115.144 204.74 115.301 202.269 116.866Z" fill="#633F3F"/>
<path d="M199.697 135.68L199.308 135.087C201.276 133.792 202.552 132.455 202.562 132.44L203.079 132.929C203.026 132.981 201.741 134.338 199.697 135.68Z" fill="#633F3F"/>
<path d="M213.733 94.4308C217.95 93.9327 224.126 95.3984 224.036 101.764C223.95 107.613 217.22 108.941 217.22 108.941C217.22 108.941 215.929 107.731 216.19 105.198C216.28 104.321 216.152 103.533 215.412 103.149C214.8 102.831 213.989 102.907 213.501 103.396C213.135 103.761 212.637 104.107 212.372 103.624C211.926 102.798 212.68 100.431 210.897 99.3639C209.625 98.605 209.137 97.7702 209.118 97.1108C209.085 95.7969 210.498 94.8103 213.733 94.4308Z" fill="#222222"/>
<path d="M214.847 106.444C214.302 106.444 213.951 106.097 213.932 106.079L214.264 105.742C214.283 105.756 214.681 106.135 215.241 105.875C215.843 105.599 215.981 105.035 215.986 105.011L216.45 105.116C216.446 105.149 216.265 105.931 215.44 106.311C215.222 106.406 215.023 106.444 214.847 106.444Z" fill="#4A292F"/>
<path d="M210.941 111.308C210.604 111.308 210.386 111.279 210.357 111.275L210.452 110.568C210.471 110.568 212.34 110.805 213.896 109.719L214.304 110.302C213.071 111.166 211.7 111.308 210.941 111.308Z" fill="#633F3F"/>
<path d="M223.697 99.9156C223.697 99.9156 227.483 99.0333 229.261 100.954C232.112 104.028 230.362 111.063 232.748 113.771C235.968 117.428 237.088 123.993 232.582 126.189C228.317 128.262 223.038 124.747 225.002 116.755C226.354 111.252 226.7 106.514 226.463 104.512C226.074 101.282 225.301 101.201 223.787 100.703L223.697 99.9156Z" fill="#222222"/>
<path d="M209.244 114.633L210.174 111.806C212.797 112.209 215.42 111.687 218.048 110.273L219.058 114.353C219.054 114.348 212.555 116.165 209.244 114.633Z" fill="#F75D59"/>
<path d="M225.005 125.457C222.965 123.498 222.443 120.159 223.577 116.293C225.09 111.137 225.721 106.332 225.56 104.254C225.342 101.408 224.81 101.209 223.516 100.72L223.283 100.635L223.539 99.9707L223.767 100.056C225.29 100.625 226.03 101.043 226.271 104.202C226.428 106.279 225.868 111.013 224.26 116.497C223.207 120.097 223.658 123.18 225.498 124.95L225.005 125.457Z" fill="#222222"/>
<path d="M210.359 98.6668C209.41 98.202 207.242 95.8492 209.562 94.4167C212.294 92.728 218.152 96.2856 218.152 96.2856L210.359 98.6668Z" fill="#222222"/>
<path d="M204.885 148.849L201.598 146.994L201.944 146.373L204.984 148.085L211.929 146.245L212.109 146.932L204.885 148.849Z" fill="#633F3F"/>
<path d="M210.203 150.044L207.608 148.085L208.035 147.516L210.369 149.276L216.099 147.938L216.26 148.631L210.203 150.044Z" fill="#633F3F"/>
<path d="M213.613 116.315C212.143 116.315 210.938 116.025 210.245 115.807L210.459 115.129C211.839 115.556 215.415 116.315 218.854 114.057L219.243 114.65C217.284 115.94 215.283 116.315 213.613 116.315Z" fill="#633F3F"/>
<path d="M217.628 111.682L216.935 111.842L217.418 113.941L218.112 113.781L217.628 111.682Z" fill="#633F3F"/>
<path d="M229.726 150.993C228.768 149.001 225.728 148.365 225.699 148.36L225.837 147.663C225.974 147.692 229.252 148.37 230.367 150.685L229.726 150.993Z" fill="#633F3F"/>
<path d="M196.334 110.112L194 112.071L193.791 116.008L196.334 110.112Z" fill="#F75D59"/>
<path d="M191.22 118.459L192.311 114.1L195.517 112.293L196.94 114.959L191.22 118.459Z" fill="#F75D59"/>
<path d="M199.7 114.74C197.267 114.74 195.365 112.506 195.279 112.401L195.825 111.946C195.844 111.97 197.831 114.294 200.108 114L200.198 114.706C200.032 114.73 199.866 114.74 199.7 114.74Z" fill="#633F3F"/>
<path d="M203.444 82.9166L202.579 83.3071L205.924 90.7119L206.788 90.3214L203.444 82.9166Z" fill="#633F3F"/>
<path d="M196.244 88.893L195.743 89.6987L202.644 93.989L203.145 93.1833L196.244 88.893Z" fill="#633F3F"/>
<path d="M201.516 97.2742L193.393 97.4204L193.41 98.3689L201.534 98.2226L201.516 97.2742Z" fill="#633F3F"/>
<path d="M205.641 196.98L202.409 201.404L202.984 201.824L206.216 197.4L205.641 196.98Z" fill="white"/>
<path d="M206.697 157.372C205.421 157.372 204.396 156.983 203.637 156.21C202.119 154.658 202.276 152.149 202.285 152.04L202.997 152.087C202.997 152.111 202.854 154.393 204.149 155.711C204.823 156.395 205.781 156.708 207 156.646L207.038 157.357C206.924 157.367 206.81 157.372 206.697 157.372Z" fill="white"/>
<path d="M50.9672 235.243H103.159C106.323 235.243 108.918 232.653 108.918 229.485L111.289 131.998C111.289 128.834 108.699 126.239 105.531 126.239H48.5954C45.4316 126.239 42.8369 128.829 42.8369 131.998L45.2086 229.485C45.2086 232.649 47.7985 235.243 50.9672 235.243Z" fill="#2E2E2E"/>
<path d="M103.137 235.723H50.9503C47.516 235.723 44.7174 232.929 44.7174 229.49L42.3457 132.018C42.3457 128.569 45.1396 125.775 48.5786 125.775H105.514C108.948 125.775 111.747 128.569 111.747 132.008L109.375 229.505C109.37 232.925 106.576 235.723 103.137 235.723ZM48.5786 126.724C45.6661 126.724 43.2944 129.096 43.2944 132.008L45.6661 229.481C45.6661 232.408 48.0378 234.775 50.9503 234.775H103.142C106.055 234.775 108.426 232.403 108.426 229.49L110.798 131.994C110.798 129.091 108.426 126.724 105.514 126.724H48.5786Z" fill="#2E2E2E"/>
<path d="M112.69 229.473H112.69V229.485C112.69 232.377 110.32 234.743 107.432 234.743H55.2396C52.3474 234.743 49.9811 232.373 49.9811 229.485H49.9812L49.9809 229.473L47.6094 131.992C47.6126 129.102 49.9819 126.739 52.8679 126.739H109.803C112.693 126.739 115.058 129.106 115.062 131.992L112.69 229.473Z" fill="white" stroke="#2E2E2E"/>
<path d="M61.1984 168.392H101.693C104.947 168.392 107.603 165.731 107.603 162.481V141.122C107.603 137.872 104.942 135.211 101.693 135.211H61.1984C57.9492 135.211 55.2881 137.872 55.2881 141.122V162.481C55.2881 165.731 57.9444 168.392 61.1984 168.392Z" fill="#DCE7F9"/>
<path d="M101.689 168.869H61.1942C57.6746 168.869 54.8096 166.004 54.8096 162.484V141.124C54.8096 137.605 57.6746 134.74 61.1942 134.74H101.689C105.208 134.74 108.074 137.605 108.074 141.124V162.484C108.074 166.004 105.208 168.869 101.689 168.869ZM61.1942 135.684C58.1964 135.684 55.7583 138.122 55.7583 141.12V162.479C55.7583 165.477 58.1964 167.915 61.1942 167.915H101.689C104.687 167.915 107.125 165.477 107.125 162.479V141.12C107.125 138.122 104.687 135.684 101.689 135.684H61.1942Z" fill="#6F6D6D"/>
<path d="M45.9134 157.489L45.2021 157.506L46.4108 207.643L47.1221 207.626L45.9134 157.489Z" fill="white"/>
<path d="M96.5983 187.31H102.048C103.481 187.31 104.653 186.138 104.653 184.706V182.405C104.653 180.973 103.481 179.801 102.048 179.801H96.5983C95.1658 179.801 93.9941 180.973 93.9941 182.405V184.706C93.9941 186.138 95.1658 187.31 96.5983 187.31Z" fill="#AFC9F9"/>
<path d="M96.5983 187.31H102.048C103.481 187.31 104.653 186.138 104.653 184.706V182.405C104.653 180.973 103.481 179.801 102.048 179.801H96.5983C95.1658 179.801 93.9941 180.973 93.9941 182.405V184.706C93.9941 186.138 95.1658 187.31 96.5983 187.31Z" fill="#F2695F"/>
<path d="M96.5983 199.548H102.048C103.481 199.548 104.653 198.376 104.653 196.944V194.643C104.653 193.211 103.481 192.039 102.048 192.039H96.5983C95.1658 192.039 93.9941 193.211 93.9941 194.643V196.944C93.9941 198.376 95.1658 199.548 96.5983 199.548Z" fill="#AFC9F9"/>
<path d="M96.5983 211.657H102.048C103.481 211.657 104.653 210.486 104.653 209.053V206.753C104.653 205.32 103.481 204.148 102.048 204.148H96.5983C95.1658 204.148 93.9941 205.32 93.9941 206.753V209.053C93.9941 210.486 95.1658 211.657 96.5983 211.657Z" fill="#AFC9F9"/>
<path d="M96.5983 223.858H102.048C103.481 223.858 104.653 222.686 104.653 221.254V218.953C104.653 217.521 103.481 216.349 102.048 216.349H96.5983C95.1658 216.349 93.9941 217.521 93.9941 218.953V221.254C93.9941 222.686 95.1658 223.858 96.5983 223.858Z" fill="#AFC9F9"/>
<path d="M79.3004 187.314H84.7506C86.1831 187.314 87.3548 186.142 87.3548 184.709V182.409C87.3548 180.976 86.1831 179.805 84.7506 179.805H79.3004C77.8679 179.805 76.6963 180.976 76.6963 182.409V184.709C76.701 186.142 77.8727 187.314 79.3004 187.314Z" fill="#AFCAF9"/>
<path d="M62.0153 187.313H67.4655C68.898 187.313 70.0696 186.141 70.0696 184.709V182.408C70.0696 180.976 68.898 179.804 67.4655 179.804H62.0153C60.5828 179.804 59.4111 180.976 59.4111 182.408V184.709C59.4111 186.141 60.5828 187.313 62.0153 187.313Z" fill="#AFCAF9"/>
<path d="M96.5983 199.549H102.048C103.481 199.549 104.653 198.378 104.653 196.945V194.645C104.653 193.212 103.481 192.041 102.048 192.041H96.5983C95.1658 192.041 93.9941 193.212 93.9941 194.645V196.945C93.9941 198.378 95.1658 199.549 96.5983 199.549Z" fill="#AFCAF9"/>
<path d="M79.3004 199.545H84.7506C86.1831 199.545 87.3548 198.373 87.3548 196.941V194.64C87.3548 193.208 86.1831 192.036 84.7506 192.036H79.3004C77.8679 192.036 76.6963 193.208 76.6963 194.64V196.941C76.701 198.373 77.8727 199.545 79.3004 199.545Z" fill="#AFCAF9"/>
<path d="M62.0153 199.547H67.4655C68.898 199.547 70.0696 198.376 70.0696 196.943V194.643C70.0696 193.21 68.898 192.039 67.4655 192.039H62.0153C60.5828 192.039 59.4111 193.21 59.4111 194.643V196.943C59.4111 198.376 60.5828 199.547 62.0153 199.547Z" fill="#AFCAF9"/>
<path d="M96.5983 211.659H102.048C103.481 211.659 104.653 210.487 104.653 209.055V206.754C104.653 205.322 103.481 204.15 102.048 204.15H96.5983C95.1658 204.15 93.9941 205.322 93.9941 206.754V209.055C93.9941 210.487 95.1658 211.659 96.5983 211.659Z" fill="#AFCAF9"/>
<path d="M79.3004 211.654H84.7506C86.1831 211.654 87.3548 210.483 87.3548 209.05V206.75C87.3548 205.317 86.1831 204.146 84.7506 204.146H79.3004C77.8679 204.146 76.6963 205.317 76.6963 206.75V209.05C76.701 210.483 77.8727 211.654 79.3004 211.654Z" fill="#AFCAF9"/>
<path d="M62.0153 211.657H67.4655C68.898 211.657 70.0696 210.485 70.0696 209.053V206.752C70.0696 205.32 68.898 204.148 67.4655 204.148H62.0153C60.5828 204.148 59.4111 205.32 59.4111 206.752V209.053C59.4111 210.485 60.5828 211.657 62.0153 211.657Z" fill="#AFCAF9"/>
<path d="M62.0153 223.862H67.4655C68.898 223.862 70.0696 222.69 70.0696 221.258V218.957C70.0696 217.525 68.898 216.353 67.4655 216.353H62.0153C60.5828 216.353 59.4111 217.525 59.4111 218.957V221.258C59.4111 222.69 60.5828 223.862 62.0153 223.862Z" fill="#AFCAF9"/>
<path d="M96.5983 223.86H102.048C103.481 223.86 104.653 222.688 104.653 221.256V218.955C104.653 217.523 103.481 216.351 102.048 216.351H96.5983C95.1658 216.351 93.9941 217.523 93.9941 218.955V221.256C93.9941 222.688 95.1658 223.86 96.5983 223.86Z" fill="#AFCAF9"/>
<path d="M79.3004 223.862H84.7506C86.1831 223.862 87.3548 222.69 87.3548 221.258V218.957C87.3548 217.525 86.1831 216.353 84.7506 216.353H79.3004C77.8679 216.353 76.6963 217.525 76.6963 218.957V221.258C76.701 222.69 77.8727 223.862 79.3004 223.862Z" fill="#AFCAF9"/>
<path d="M102.046 187.785H96.5961C94.8979 187.785 93.5176 186.405 93.5176 184.707V182.406C93.5176 180.708 94.8979 179.328 96.5961 179.328H102.046C103.744 179.328 105.125 180.708 105.125 182.406V184.707C105.125 186.405 103.744 187.785 102.046 187.785ZM96.5961 180.276C95.4197 180.276 94.4663 181.23 94.4663 182.406V184.707C94.4663 185.883 95.4197 186.836 96.5961 186.836H102.046C103.223 186.836 104.176 185.883 104.176 184.707V182.406C104.176 181.23 103.223 180.276 102.046 180.276H96.5961Z" fill="#5E3B3B"/>
<path d="M84.7631 187.786H79.3129C77.6147 187.786 76.2344 186.406 76.2344 184.708V182.407C76.2344 180.709 77.6147 179.329 79.3129 179.329H84.7631C86.4612 179.329 87.8415 180.709 87.8415 182.407V184.708C87.8415 186.406 86.4612 187.786 84.7631 187.786ZM79.3129 180.277C78.1365 180.277 77.1831 181.231 77.1831 182.407V184.708C77.1831 185.884 78.1365 186.837 79.3129 186.837H84.7631C85.9394 186.837 86.8929 185.884 86.8929 184.708V182.407C86.8929 181.231 85.9394 180.277 84.7631 180.277H79.3129Z" fill="#5E3B3B"/>
<path d="M67.4779 187.786H62.0277C60.3296 187.786 58.9492 186.406 58.9492 184.708V182.407C58.9492 180.709 60.3296 179.329 62.0277 179.329H67.4779C69.1761 179.329 70.5564 180.709 70.5564 182.407V184.708C70.5564 186.406 69.1761 187.786 67.4779 187.786ZM62.0277 180.277C60.8513 180.277 59.8979 181.231 59.8979 182.407V184.708C59.8979 185.884 60.8513 186.837 62.0277 186.837H67.4779C68.6543 186.837 69.6077 185.884 69.6077 184.708V182.407C69.6077 181.231 68.6543 180.277 67.4779 180.277H62.0277Z" fill="#5E3B3B"/>
<path d="M102.046 200.017H96.5961C94.8979 200.017 93.5176 198.637 93.5176 196.939V194.638C93.5176 192.94 94.8979 191.56 96.5961 191.56H102.046C103.744 191.56 105.125 192.94 105.125 194.638V196.939C105.125 198.637 103.744 200.017 102.046 200.017ZM96.5961 192.508C95.4197 192.508 94.4663 193.462 94.4663 194.638V196.939C94.4663 198.115 95.4197 199.068 96.5961 199.068H102.046C103.223 199.068 104.176 198.115 104.176 196.939V194.638C104.176 193.462 103.223 192.508 102.046 192.508H96.5961Z" fill="#5E3B3B"/>
<path d="M84.7631 200.017H79.3129C77.6147 200.017 76.2344 198.636 76.2344 196.938V194.638C76.2344 192.939 77.6147 191.559 79.3129 191.559H84.7631C86.4612 191.559 87.8415 192.939 87.8415 194.638V196.938C87.8415 198.636 86.4612 200.017 84.7631 200.017ZM79.3129 192.508C78.1365 192.508 77.1831 193.461 77.1831 194.638V196.938C77.1831 198.115 78.1365 199.068 79.3129 199.068H84.7631C85.9394 199.068 86.8929 198.115 86.8929 196.938V194.638C86.8929 193.461 85.9394 192.508 84.7631 192.508H79.3129Z" fill="#5E3B3B"/>
<path d="M67.4779 200.017H62.0277C60.3296 200.017 58.9492 198.636 58.9492 196.938V194.638C58.9492 192.939 60.3296 191.559 62.0277 191.559H67.4779C69.1761 191.559 70.5564 192.939 70.5564 194.638V196.938C70.5564 198.636 69.1761 200.017 67.4779 200.017ZM62.0277 192.508C60.8513 192.508 59.8979 193.461 59.8979 194.638V196.938C59.8979 198.115 60.8513 199.068 62.0277 199.068H67.4779C68.6543 199.068 69.6077 198.115 69.6077 196.938V194.638C69.6077 193.461 68.6543 192.508 67.4779 192.508H62.0277Z" fill="#5E3B3B"/>
<path d="M102.046 212.126H96.5961C94.8979 212.126 93.5176 210.746 93.5176 209.048V206.747C93.5176 205.049 94.8979 203.669 96.5961 203.669H102.046C103.744 203.669 105.125 205.049 105.125 206.747V209.048C105.125 210.746 103.744 212.126 102.046 212.126ZM96.5961 204.618C95.4197 204.618 94.4663 205.571 94.4663 206.747V209.048C94.4663 210.224 95.4197 211.178 96.5961 211.178H102.046C103.223 211.178 104.176 210.224 104.176 209.048V206.747C104.176 205.571 103.223 204.618 102.046 204.618H96.5961Z" fill="#5E3B3B"/>
<path d="M84.7631 212.126H79.3129C77.6147 212.126 76.2344 210.746 76.2344 209.048V206.747C76.2344 205.049 77.6147 203.668 79.3129 203.668H84.7631C86.4612 203.668 87.8415 205.049 87.8415 206.747V209.048C87.8415 210.746 86.4612 212.126 84.7631 212.126ZM79.3129 204.617C78.1365 204.617 77.1831 205.571 77.1831 206.747V209.048C77.1831 210.224 78.1365 211.177 79.3129 211.177H84.7631C85.9394 211.177 86.8929 210.224 86.8929 209.048V206.747C86.8929 205.571 85.9394 204.617 84.7631 204.617H79.3129Z" fill="#5E3B3B"/>
<path d="M67.4779 212.126H62.0277C60.3296 212.126 58.9492 210.746 58.9492 209.048V206.747C58.9492 205.049 60.3296 203.668 62.0277 203.668H67.4779C69.1761 203.668 70.5564 205.049 70.5564 206.747V209.048C70.5564 210.746 69.1761 212.126 67.4779 212.126ZM62.0277 204.617C60.8513 204.617 59.8979 205.571 59.8979 206.747V209.048C59.8979 210.224 60.8513 211.177 62.0277 211.177H67.4779C68.6543 211.177 69.6077 210.224 69.6077 209.048V206.747C69.6077 205.571 68.6543 204.617 67.4779 204.617H62.0277Z" fill="#5E3B3B"/>
<path d="M102.046 224.334H96.5961C94.8979 224.334 93.5176 222.954 93.5176 221.256V218.955C93.5176 217.257 94.8979 215.876 96.5961 215.876H102.046C103.744 215.876 105.125 217.257 105.125 218.955V221.256C105.125 222.949 103.744 224.334 102.046 224.334ZM96.5961 216.825C95.4197 216.825 94.4663 217.779 94.4663 218.955V221.256C94.4663 222.432 95.4197 223.385 96.5961 223.385H102.046C103.223 223.385 104.176 222.432 104.176 221.256V218.955C104.176 217.779 103.223 216.825 102.046 216.825H96.5961Z" fill="#5E3B3B"/>
<path d="M84.7631 224.334H79.3129C77.6147 224.334 76.2344 222.954 76.2344 221.256V218.955C76.2344 217.257 77.6147 215.876 79.3129 215.876H84.7631C86.4612 215.876 87.8415 217.257 87.8415 218.955V221.256C87.8415 222.949 86.4612 224.334 84.7631 224.334ZM79.3129 216.825C78.1365 216.825 77.1831 217.779 77.1831 218.955V221.256C77.1831 222.432 78.1365 223.385 79.3129 223.385H84.7631C85.9394 223.385 86.8929 222.432 86.8929 221.256V218.955C86.8929 217.779 85.9394 216.825 84.7631 216.825H79.3129Z" fill="#5E3B3B"/>
<path d="M67.4779 224.334H62.0277C60.3296 224.334 58.9492 222.954 58.9492 221.256V218.955C58.9492 217.257 60.3296 215.876 62.0277 215.876H67.4779C69.1761 215.876 70.5564 217.257 70.5564 218.955V221.256C70.5564 222.949 69.1761 224.334 67.4779 224.334ZM62.0277 216.825C60.8513 216.825 59.8979 217.779 59.8979 218.955V221.256C59.8979 222.432 60.8513 223.385 62.0277 223.385H67.4779C68.6543 223.385 69.6077 222.432 69.6077 221.256V218.955C69.6077 217.779 68.6543 216.825 67.4779 216.825H62.0277Z" fill="#5E3B3B"/>
<path d="M59.4444 164.922C60.0679 164.922 60.5733 164.417 60.5733 163.793C60.5733 163.17 60.0679 162.665 59.4444 162.665C58.8209 162.665 58.3154 163.17 58.3154 163.793C58.3154 164.417 58.8209 164.922 59.4444 164.922Z" fill="#633F3F"/>
<path d="M299.306 228.476H254.253V237.194H299.306V228.476Z" fill="#FFC76C"/>
<path d="M289.812 218.835H244.759V227.553H289.812V218.835Z" fill="#FFC76C"/>
<path d="M299.267 209.223H254.214V217.941H299.267V209.223Z" fill="#FFC76C"/>
<path d="M259.435 209.223H258.486V217.941H259.435V209.223Z" fill="#5E3B3B"/>
<path d="M264.187 209.225H263.238V217.943H264.187V209.225Z" fill="#5E3B3B"/>
<path d="M278.405 209.223H277.456V217.941H278.405V209.223Z" fill="#5E3B3B"/>
<path d="M287.892 209.225H286.943V217.943H287.892V209.225Z" fill="#5E3B3B"/>
<path d="M249.98 218.835H249.031V227.553H249.98V218.835Z" fill="#5E3B3B"/>
<path d="M254.723 218.83H253.774V227.549H254.723V218.83Z" fill="#5E3B3B"/>
<path d="M268.957 218.838H268.009V227.556H268.957V218.838Z" fill="#5E3B3B"/>
<path d="M273.693 218.829H272.744V227.548H273.693V218.829Z" fill="#5E3B3B"/>
<path d="M278.443 228.475H277.494V237.194H278.443V228.475Z" fill="#5E3B3B"/>
<path d="M287.926 228.474H286.978V237.192H287.926V228.474Z" fill="#5E3B3B"/>
<path d="M292.674 228.475H291.726V237.194H292.674V228.475Z" fill="#5E3B3B"/>
<path d="M299.269 217.89H254.458V218.839H299.269V217.89Z" fill="#5E3B3B"/>
<path d="M289.783 227.593H244.759V228.542H289.783V227.593Z" fill="#5E3B3B"/>
</svg>
