<svg width="68" height="68" viewBox="0 0 68 68" fill="none" xmlns="http://www.w3.org/2000/svg">
<path d="M20.2371 28.792C19.8759 28.792 19.5294 28.9355 19.274 29.191C19.0185 29.4464 18.875 29.7929 18.875 30.1541C18.875 30.5154 19.0185 30.8619 19.274 31.1173C19.5294 31.3728 19.8759 31.5163 20.2371 31.5163H42.7125C43.0737 31.5163 43.4202 31.3728 43.6756 31.1173C43.9311 30.8619 44.0746 30.5154 44.0746 30.1541C44.0746 29.7929 43.9311 29.4464 43.6756 29.191C43.4202 28.9355 43.0737 28.792 42.7125 28.792H20.2371Z" fill="#B75EDB"/>
<path d="M20.2371 20.6191C19.8759 20.6191 19.5294 20.7627 19.274 21.0181C19.0185 21.2736 18.875 21.62 18.875 21.9813C18.875 22.3425 19.0185 22.689 19.274 22.9445C19.5294 23.1999 19.8759 23.3434 20.2371 23.3434H32.4964C32.8577 23.3434 33.2041 23.1999 33.4596 22.9445C33.715 22.689 33.8586 22.3425 33.8586 21.9813C33.8586 21.62 33.715 21.2736 33.4596 21.0181C33.2041 20.7627 32.8577 20.6191 32.4964 20.6191H20.2371Z" fill="#B75EDB"/>
<path d="M12.7446 6.99805C10.5039 6.99805 8.6582 8.84374 8.6582 11.0845V57.3973C8.6582 59.638 10.5039 61.4837 12.7446 61.4837H44.755C44.7962 61.475 44.837 61.4643 44.8773 61.4518C46.6479 61.6297 48.4816 61.0454 49.831 59.696L53.4439 56.0831C53.6992 55.8277 53.8428 55.4812 53.8428 55.12C53.8428 54.7588 53.6992 54.4124 53.4439 54.1569C53.1884 53.9015 52.842 53.7581 52.4808 53.7581C52.1196 53.7581 51.7731 53.9015 51.5177 54.1569L47.9048 57.7698C46.5542 59.1205 44.4401 59.1205 43.0894 57.7698C41.7388 56.4191 41.7388 54.3051 43.0894 52.9544L46.7023 49.3416C46.9577 49.0861 47.1012 48.7397 47.1012 48.3785C47.1012 48.0173 46.9577 47.6709 46.7023 47.4154C46.4469 47.16 46.1005 47.0165 45.7392 47.0165C45.378 47.0165 45.0316 47.16 44.7762 47.4154L41.1633 51.0256C39.0698 53.1191 38.8147 56.3809 40.3971 58.7595H12.7446C11.9762 58.7595 11.3825 58.1658 11.3825 57.3974V11.0845C11.3825 10.3161 11.9762 9.72238 12.7446 9.72238H38.6253V19.2574C38.6253 21.4981 40.471 23.3438 42.7117 23.3438H52.2467V39.9423C52.244 39.945 52.2413 39.9477 52.2386 39.9504L48.6284 43.5633C48.373 43.8187 48.2295 44.1651 48.2295 44.5264C48.2295 44.8876 48.373 45.234 48.6284 45.4894C48.8838 45.7448 49.2302 45.8883 49.5915 45.8883C49.9527 45.8883 50.2991 45.7448 50.5545 45.4894L54.1647 41.8766C55.5154 40.5259 57.6321 40.5259 58.9828 41.8766C60.3335 43.2272 60.3335 45.3413 58.9828 46.692L55.3699 50.3048C55.1145 50.5603 54.971 50.9067 54.971 51.2679C54.971 51.6291 55.1145 51.9755 55.3699 52.231C55.6254 52.4864 55.9718 52.6298 56.333 52.6298C56.6942 52.6298 57.0406 52.4864 57.2961 52.231L60.9089 48.6181C63.2935 46.2336 63.2935 42.335 60.9089 39.9504C59.3072 38.3487 57.0214 37.8228 54.9709 38.3728V21.9816C54.9708 21.6204 54.8272 21.2739 54.5718 21.0185L40.9504 7.39711C40.695 7.14171 40.3486 6.99817 39.9875 6.99805H12.7446ZM41.3496 11.6485L50.3206 20.6195H42.7117C41.9433 20.6195 41.3496 20.0257 41.3496 19.2573V11.6485Z" fill="#602EDF"/>
<path d="M20.2371 45.1377C19.8759 45.1377 19.5294 45.2812 19.274 45.5367C19.0185 45.7921 18.875 46.1386 18.875 46.4998C18.875 46.8611 19.0185 47.2076 19.274 47.463C19.5294 47.7185 19.8759 47.862 20.2371 47.862H37.2639C37.6252 47.862 37.9716 47.7185 38.2271 47.463C38.4825 47.2076 38.6261 46.8611 38.6261 46.4998C38.6261 46.1386 38.4825 45.7921 38.2271 45.5367C37.9716 45.2812 37.6252 45.1377 37.2639 45.1377H20.2371Z" fill="#B75EDB"/>
<path d="M20.2371 36.9648C19.8759 36.9648 19.5294 37.1084 19.274 37.3638C19.0185 37.6193 18.875 37.9657 18.875 38.327C18.875 38.6882 19.0185 39.0347 19.274 39.2902C19.5294 39.5456 19.8759 39.6891 20.2371 39.6891H42.7125C43.0737 39.6891 43.4202 39.5456 43.6756 39.2902C43.9311 39.0347 44.0746 38.6882 44.0746 38.327C44.0746 37.9657 43.9311 37.6193 43.6756 37.3638C43.4202 37.1084 43.0737 36.9648 42.7125 36.9648H20.2371Z" fill="#B75EDB"/>
<path d="M55.129 45.729C54.8736 45.4736 54.527 45.3301 54.1658 45.3301C53.8045 45.3301 53.4581 45.4736 53.2026 45.729L46.942 51.9897C46.8155 52.1162 46.7151 52.2664 46.6466 52.4316C46.5782 52.5969 46.543 52.774 46.543 52.9529C46.543 53.1318 46.5782 53.3089 46.6466 53.4742C46.7151 53.6394 46.8155 53.7896 46.942 53.9161C47.1974 54.1715 47.5438 54.315 47.9051 54.315C48.2664 54.315 48.6129 54.1715 48.8684 53.9161L55.129 47.6554C55.3845 47.3999 55.5279 47.0535 55.5279 46.6922C55.5279 46.331 55.3845 45.9845 55.129 45.729Z" fill="#B75EDB"/>
</svg>
