<svg width="120" height="120" viewBox="0 0 120 120" fill="none" xmlns="http://www.w3.org/2000/svg">
<path fill-rule="evenodd" clip-rule="evenodd" d="M52.1546 38.7049C53.6602 38.1067 55.374 37.6942 57.2752 37.503C57.7908 37.4524 58.1658 36.993 58.1152 36.4774C58.0627 35.9636 57.6033 35.5867 57.0896 35.6374C54.999 35.8474 53.1165 36.3049 51.4627 36.963C50.9808 37.1524 50.7465 37.698 50.9377 38.1799C51.129 38.6599 51.6746 38.8961 52.1546 38.7049Z" fill="#738BAB"/>
<path fill-rule="evenodd" clip-rule="evenodd" d="M61.8691 37.4675C64.0853 37.6344 66.1141 37.67 67.9666 37.5913C68.4841 37.5706 68.8872 37.1338 68.8647 36.6163C68.8441 36.0988 68.4053 35.6975 67.8897 35.7181C66.1028 35.7931 64.1472 35.7575 62.0097 35.5963C61.4941 35.5588 61.0441 35.945 61.0047 36.4606C60.9653 36.9781 61.3535 37.4281 61.8691 37.4675Z" fill="#738BAB"/>
<path fill-rule="evenodd" clip-rule="evenodd" d="M73.0292 37.0377C75.2155 36.6271 77.0699 36.0196 78.628 35.2715C79.0949 35.0465 79.2917 34.4858 79.0667 34.0208C78.8436 33.554 78.283 33.3571 77.8161 33.5802C76.3874 34.2665 74.6867 34.8196 72.6824 35.1965C72.1742 35.2921 71.8386 35.7815 71.9342 36.2915C72.0299 36.7996 72.5211 37.1333 73.0292 37.0377Z" fill="#738BAB"/>
<path fill-rule="evenodd" clip-rule="evenodd" d="M82.4499 32.6655C84.1299 31.0436 85.1161 29.1761 85.5605 27.2767C85.6786 26.7723 85.3636 26.2679 84.8611 26.1498C84.3567 26.0317 83.8524 26.3467 83.7342 26.8492C83.3667 28.4261 82.5417 29.9711 81.1486 31.3154C80.7755 31.6754 80.7642 32.2698 81.1242 32.6411C81.4842 33.0142 82.0767 33.0255 82.4499 32.6655Z" fill="#738BAB"/>
<path fill-rule="evenodd" clip-rule="evenodd" d="M85.1127 20.8219C84.3683 18.8456 83.1064 17.1675 81.5689 16.1063C81.1433 15.8138 80.5602 15.9206 80.2658 16.3463C79.9714 16.7719 80.0783 17.3569 80.5058 17.6513C81.7489 18.5081 82.7558 19.8806 83.3577 21.4819C83.5396 21.9656 84.0796 22.2113 84.5652 22.0294C85.0489 21.8475 85.2946 21.3056 85.1127 20.8219Z" fill="#738BAB"/>
<path fill-rule="evenodd" clip-rule="evenodd" d="M60.6849 16.1026C61.7143 11.2726 65.8168 8.92324 68.7755 8.90636C69.7468 8.90074 70.5887 9.12949 71.0255 9.71449C71.2843 10.0614 71.363 10.5264 71.2637 11.0964C71.1755 11.6064 71.5187 12.092 72.0287 12.1801C72.5387 12.2682 73.0243 11.9251 73.1124 11.4151C73.3149 10.2432 73.0599 9.30386 72.5274 8.59324C71.783 7.59386 70.418 7.02199 68.7662 7.03136C65.1643 7.05199 60.1037 9.83261 58.8512 15.7126C58.7424 16.2189 59.0649 16.7157 59.5712 16.8245C60.0774 16.9332 60.5762 16.6089 60.6849 16.1026Z" fill="#738BAB"/>
<path fill-rule="evenodd" clip-rule="evenodd" d="M58.8591 16.1056C60.1284 21.9556 65.1703 24.7231 68.7628 24.7456C70.5422 24.7549 71.9841 24.0931 72.6891 22.9474C73.1147 22.2574 73.3003 21.3781 73.1016 20.3037C72.8578 18.9818 71.9878 17.2887 70.1672 15.2787C69.8203 14.8943 69.2259 14.8643 68.8434 15.2112C68.4591 15.5599 68.4291 16.1524 68.7778 16.5368C70.0453 17.9374 70.7972 19.1318 71.1272 20.1349C71.3766 20.8999 71.3709 21.5131 71.0934 21.9649C70.8422 22.3718 70.3922 22.6174 69.8503 22.7524C69.1697 22.9212 68.3541 22.9081 67.4934 22.7262C64.7428 22.1449 61.5891 19.8443 60.6928 15.7081C60.5822 15.2018 60.0834 14.8812 59.5772 14.9899C59.0709 15.1006 58.7503 15.5993 58.8591 16.1056Z" fill="#738BAB"/>
<path fill-rule="evenodd" clip-rule="evenodd" d="M59.5215 17.7832H72.0746C73.1096 17.7832 73.9496 16.9432 73.9496 15.9082C73.9496 14.8732 73.1096 14.0332 72.0746 14.0332H59.5215C58.4865 14.0332 57.6465 14.8732 57.6465 15.9082C57.6465 16.9432 58.4865 17.7832 59.5215 17.7832Z" fill="#CFC0F5"/>
<path fill-rule="evenodd" clip-rule="evenodd" d="M21.5625 90.9755V101.492C21.5625 103.562 22.92 105.387 24.9037 105.981C32.4375 108.242 53.6287 114.601 58.6537 116.106C59.5312 116.371 60.4687 116.371 61.3462 116.106C66.3712 114.601 87.5625 108.242 95.0962 105.981C97.08 105.387 98.4375 103.562 98.4375 101.492C98.4375 96.4862 98.4375 86.498 98.4375 86.498C98.4375 85.9805 98.0175 85.5605 97.5 85.5605C96.9825 85.5605 96.5625 85.9805 96.5625 86.498V101.492C96.5625 102.734 95.7469 103.829 94.5581 104.187C87.0244 106.446 65.8312 112.804 60.8081 114.312C60.2812 114.469 59.7188 114.469 59.1919 114.312L25.4419 104.187C24.2531 103.829 23.4375 102.734 23.4375 101.492V90.9755C23.4375 90.458 23.0175 90.038 22.5 90.038C21.9825 90.038 21.5625 90.458 21.5625 90.9755Z" fill="#738BAB"/>
<path fill-rule="evenodd" clip-rule="evenodd" d="M19.3806 69.7314C19.3806 69.7314 14.6331 76.7702 12.2069 80.3664C11.7137 81.0977 11.5919 82.0202 11.8806 82.8545C12.1675 83.6889 12.8294 84.3414 13.6694 84.6133L47.41 95.5764C48.6025 95.9627 49.9056 95.5164 50.6087 94.4795C53.1231 90.767 60.7769 79.4758 60.7769 79.4758C60.9419 79.232 60.9831 78.9245 60.8875 78.6452C60.7919 78.3658 60.5706 78.1483 60.2894 78.0583L22.7894 65.8895C22.2981 65.7302 21.7694 66.0002 21.6081 66.4933C21.4487 66.9845 21.7187 67.5133 22.2119 67.6745L58.525 79.457L49.0562 93.4277C48.8219 93.7727 48.3869 93.9227 47.9894 93.7933L14.2487 82.8302C13.9694 82.7383 13.7481 82.5227 13.6525 82.2433C13.5569 81.9658 13.5981 81.6583 13.7612 81.4145L20.935 70.7795C21.2256 70.3502 21.1112 69.767 20.6819 69.4783C20.2544 69.1877 19.6712 69.302 19.3806 69.7314Z" fill="#738BAB"/>
<path fill-rule="evenodd" clip-rule="evenodd" d="M91.8777 67.62L59.712 78.0581C59.2189 78.2175 58.9489 78.7463 59.1083 79.2394C59.2695 79.7306 59.7983 80.0006 60.2895 79.8413L92.4552 69.405C92.9483 69.2456 93.2183 68.715 93.0589 68.2238C92.8977 67.7306 92.3689 67.4606 91.8777 67.62Z" fill="#738BAB"/>
<path fill-rule="evenodd" clip-rule="evenodd" d="M61.8803 83.392C61.8803 83.392 67.3197 91.417 69.3934 94.4789C70.0965 95.5158 71.3997 95.962 72.5922 95.5758C78.1215 93.7795 99.2097 86.9264 106.333 84.6126C107.173 84.3408 107.835 83.6883 108.122 82.8539C108.41 82.0195 108.288 81.097 107.795 80.3658C104.855 76.0064 98.2797 66.2564 98.2797 66.2564C97.989 65.8289 97.4059 65.7145 96.9765 66.0033C96.549 66.2939 96.4347 66.877 96.7234 67.3064C96.7234 67.3064 103.301 77.0545 106.241 81.4139C106.404 81.6576 106.445 81.9651 106.35 82.2426C106.254 82.522 106.033 82.7376 105.753 82.8295L72.0128 93.7926C71.6153 93.922 71.1803 93.772 70.9459 93.427L63.4328 82.3401C63.1422 81.9108 62.559 81.8001 62.1297 82.0908C61.7022 82.3795 61.5897 82.9645 61.8803 83.392Z" fill="#738BAB"/>
<path fill-rule="evenodd" clip-rule="evenodd" d="M28.4847 65.8207L60.2903 55.4669C60.5697 55.3751 60.7909 55.1576 60.8866 54.8782C60.9822 54.5988 60.9409 54.2913 60.7741 54.0476C60.7741 54.0476 54.0391 44.1419 51.6972 40.6976C50.9941 39.6644 49.6928 39.2182 48.5022 39.6044L14.7597 50.5676C13.9197 50.8413 13.2578 51.4919 12.9691 52.3282C12.6822 53.1626 12.8041 54.0832 13.2972 54.8163C16.0047 58.8307 21.7216 67.3076 21.7216 67.3076C22.0122 67.7351 22.5953 67.8494 23.0247 67.5588C23.4522 67.2701 23.5666 66.6869 23.2778 66.2576C23.2778 66.2576 17.5591 57.7826 14.8516 53.7682C14.6866 53.5226 14.6472 53.2169 14.7428 52.9376C14.8384 52.6601 15.0597 52.4426 15.3391 52.3507L49.0816 41.3876C49.4791 41.2582 49.9122 41.4082 50.1466 41.7513L58.5222 54.0701L27.9053 64.0376C27.4122 64.1969 27.1441 64.7276 27.3034 65.2188C27.4647 65.7101 27.9934 65.9801 28.4847 65.8207Z" fill="#738BAB"/>
<path fill-rule="evenodd" clip-rule="evenodd" d="M59.7092 55.4669L97.2092 67.6732C97.6067 67.8026 98.0436 67.6544 98.278 67.3076C98.278 67.3076 103.995 58.8307 106.702 54.8163C107.195 54.0832 107.317 53.1626 107.03 52.3282C106.742 51.4919 106.08 50.8413 105.24 50.5676L71.4973 39.6044C70.3067 39.2182 69.0054 39.6644 68.3023 40.6976L61.7436 50.3426C61.4529 50.7719 61.5636 51.3551 61.9911 51.6457C62.4204 51.9363 63.0036 51.8257 63.2942 51.3982L69.8529 41.7513C70.0873 41.4082 70.5205 41.2582 70.918 41.3876L104.66 52.3507C104.94 52.4426 105.161 52.6601 105.257 52.9376C105.352 53.2169 105.313 53.5226 105.148 53.7682L97.1173 65.6726L60.2904 53.6838C59.7973 53.5226 59.2686 53.7926 59.1092 54.2857C58.9479 54.7769 59.2179 55.3057 59.7092 55.4669Z" fill="#738BAB"/>
<path fill-rule="evenodd" clip-rule="evenodd" d="M88.4009 66.7788L60.0002 75.9926L31.5996 66.7788L60.0002 57.5332L88.4009 66.7788Z" fill="#CFC0F5"/>
<path fill-rule="evenodd" clip-rule="evenodd" d="M50.6226 54.4872C50.1182 53.7765 49.6851 53.0622 49.3213 52.3478C49.0869 51.8865 48.5226 51.7028 48.0613 51.939C47.6001 52.1734 47.4163 52.7378 47.6507 53.199C48.0538 53.9922 48.5338 54.7853 49.0944 55.5747C49.3944 55.9965 49.9794 56.094 50.4013 55.7959C50.8232 55.4959 50.9226 54.909 50.6226 54.4872Z" fill="#738BAB"/>
<path fill-rule="evenodd" clip-rule="evenodd" d="M48.0217 48.4473C47.8529 47.3785 47.8454 46.3342 47.9936 45.3329C48.0686 44.821 47.7142 44.3448 47.2023 44.2698C46.6904 44.1948 46.2142 44.5492 46.1373 45.061C45.9648 46.2423 45.9704 47.476 46.1692 48.7379C46.2498 49.2498 46.7298 49.5985 47.2417 49.5179C47.7517 49.4373 48.1023 48.9573 48.0217 48.4473Z" fill="#738BAB"/>
</svg>
