<svg width="68" height="68" viewBox="0 0 68 68" fill="none" xmlns="http://www.w3.org/2000/svg">
<g clip-path="url(#clip0_512_6020)">
<path d="M44.7188 52.8774C44.8145 52.8349 44.9043 52.7819 44.9878 52.7207C44.8984 52.7734 44.8089 52.826 44.7188 52.8774Z" fill="#602EDF"/>
<path d="M23.0117 52.7207C23.0953 52.7819 23.185 52.8348 23.2808 52.8774C23.1906 52.8259 23.1011 52.7733 23.0117 52.7207Z" fill="#602EDF"/>
<path d="M19.7216 17.6556L13.7959 11.7297C14.6021 10.5302 15.0734 9.08743 15.0734 7.53658C15.0734 3.38101 11.6924 0 7.53671 0C3.38101 0 0 3.38101 0 7.53671C0 11.6924 3.38101 15.0734 7.53671 15.0734C9.08756 15.0734 10.5302 14.6022 11.7299 13.7959L17.6556 19.7217C18.2974 18.9878 18.9878 18.2976 19.7216 17.6556ZM7.53671 12.1515C4.99202 12.1515 2.92188 10.0813 2.92188 7.53671C2.92188 4.99216 4.99202 2.92188 7.53671 2.92188C10.0813 2.92188 12.1515 4.99216 12.1515 7.53671C12.1515 10.0813 10.0813 12.1515 7.53671 12.1515Z" fill="#602EDF"/>
<path d="M60.4624 52.9266C58.9115 52.9266 57.4689 53.3978 56.2692 54.2042L50.3435 48.2783C49.7016 49.0122 49.0113 49.7025 48.2773 50.3445L54.203 56.2703C53.3969 57.4699 52.9255 58.9126 52.9255 60.4635C52.9255 64.6192 56.3065 68.0002 60.4622 68.0002C64.6181 68 67.9991 64.619 67.9991 60.4633C67.9991 56.3076 64.6181 52.9266 60.4624 52.9266ZM60.4624 65.0782C57.9178 65.0782 55.8475 63.0079 55.8475 60.4633C55.8475 57.9188 57.9177 55.8485 60.4624 55.8485C63.007 55.8485 65.0772 57.9188 65.0772 60.4633C65.0772 63.0079 63.007 65.0782 60.4624 65.0782Z" fill="#602EDF"/>
<path d="M17.6556 48.2783L11.7299 54.2042C10.5303 53.3978 9.08756 52.9266 7.53671 52.9266C3.38101 52.9266 0 56.3076 0 60.4633C0 64.619 3.38101 68 7.53671 68C11.6924 68 15.0734 64.619 15.0734 60.4633C15.0734 58.9125 14.6022 57.4699 13.7959 56.2702L19.7216 50.3444C18.9878 49.7025 18.2974 49.0122 17.6556 48.2783ZM7.53671 65.0782C4.99202 65.0782 2.92188 63.0079 2.92188 60.4633C2.92188 57.9188 4.99202 55.8485 7.53671 55.8485C10.0813 55.8485 12.1515 57.9188 12.1515 60.4633C12.1515 63.0079 10.0813 65.0782 7.53671 65.0782Z" fill="#602EDF"/>
<path d="M50.3453 19.7217L56.271 13.7959C57.4706 14.6022 58.9133 15.0734 60.4642 15.0734C64.62 15.0734 68.0009 11.6924 68.0009 7.53671C68.0009 3.38101 64.6199 0 60.4642 0C56.3085 0 52.9275 3.38101 52.9275 7.53671C52.9275 9.08756 53.3987 10.5302 54.205 11.7299L48.2793 17.6557C49.0131 18.2976 49.7034 18.9878 50.3453 19.7217ZM60.4642 2.92188C63.0089 2.92188 65.079 4.99216 65.079 7.53671C65.079 10.0813 63.0089 12.1515 60.4642 12.1515C57.9196 12.1515 55.8493 10.0813 55.8493 7.53671C55.8493 4.99216 57.9196 2.92188 60.4642 2.92188Z" fill="#602EDF"/>
<path d="M33.9987 55.7139C22.0259 55.7139 12.2852 45.9733 12.2852 34.0005C12.2852 22.0277 22.0259 12.2871 33.9987 12.2871C45.9715 12.2871 55.7122 22.0277 55.7122 34.0005C55.7122 45.9733 45.9715 55.7139 33.9987 55.7139ZM33.9987 15.209C23.6369 15.209 15.207 23.6389 15.207 34.0005C15.207 44.3621 23.6369 52.792 33.9987 52.792C44.3604 52.792 52.7903 44.3623 52.7903 34.0005C52.7903 23.6387 44.3604 15.209 33.9987 15.209Z" fill="#B75EDB"/>
<g clip-path="url(#clip1_512_6020)">
<path d="M33.9992 32.7391C32.1835 32.7391 30.4717 32.3988 29.1796 31.7806C27.8103 31.1263 27.0566 30.2286 27.0566 29.2524C27.0566 28.2761 27.8103 27.3784 29.1796 26.7242C30.4717 26.1059 32.1835 25.7656 33.9992 25.7656C35.815 25.7656 37.5265 26.1059 38.8196 26.7242C40.1879 27.3784 40.9425 28.2761 40.9425 29.2524C40.9425 30.2286 40.1889 31.1263 38.8196 31.7806C37.5265 32.3988 35.8147 32.7391 33.9992 32.7391ZM33.9992 26.4089C32.2777 26.4089 30.6643 26.7271 29.4562 27.3044C28.34 27.838 27.7 28.5479 27.7 29.2524C27.7 29.9568 28.34 30.6677 29.4562 31.2003C30.6643 31.7777 32.2777 32.0958 33.9992 32.0958C35.7207 32.0958 37.3338 31.7777 38.542 31.2016C39.6581 30.668 40.2982 29.9581 40.2982 29.2537C40.2982 28.5492 39.6581 27.8384 38.542 27.3057C37.3338 26.7271 35.7207 26.4089 33.9992 26.4089Z" fill="#602EDF"/>
<path d="M33.9992 35.9041C32.1835 35.9041 30.4717 35.5638 29.1789 34.9456C27.8103 34.2913 27.0566 33.3936 27.0566 32.4174C27.0566 32.3321 27.0905 32.2502 27.1509 32.1899C27.2112 32.1296 27.293 32.0957 27.3783 32.0957C27.4636 32.0957 27.5454 32.1296 27.6057 32.1899C27.6661 32.2502 27.7 32.3321 27.7 32.4174C27.7 33.1218 28.34 33.8326 29.4562 34.3653C30.6643 34.9427 32.2777 35.2608 33.9992 35.2608C35.7207 35.2608 37.3338 34.9427 38.542 34.3653C39.6581 33.8317 40.2982 33.1218 40.2982 32.4174C40.2982 32.3321 40.3321 32.2502 40.3924 32.1899C40.4528 32.1296 40.5346 32.0957 40.6199 32.0957C40.7052 32.0957 40.787 32.1296 40.8473 32.1899C40.9076 32.2502 40.9415 32.3321 40.9415 32.4174C40.9415 33.3936 40.1879 34.2913 38.8186 34.9456C37.5265 35.5638 35.8147 35.9041 33.9992 35.9041Z" fill="#602EDF"/>
<path d="M33.9992 39.0691C32.1835 39.0691 30.4717 38.7282 29.1796 38.1106C27.8103 37.4564 27.0566 36.5586 27.0566 35.5824C27.0566 35.4971 27.0905 35.4153 27.1509 35.355C27.2112 35.2946 27.293 35.2607 27.3783 35.2607C27.4636 35.2607 27.5454 35.2946 27.6057 35.355C27.6661 35.4153 27.7 35.4971 27.7 35.5824C27.7 36.2868 28.34 36.9977 29.4562 37.5303C30.6643 38.1077 32.2777 38.4258 33.9992 38.4258C35.7207 38.4258 37.3338 38.1077 38.542 37.5303C39.6581 36.9967 40.2982 36.2868 40.2982 35.5824C40.2982 35.4971 40.3321 35.4153 40.3924 35.355C40.4528 35.2946 40.5346 35.2607 40.6199 35.2607C40.7052 35.2607 40.787 35.2946 40.8473 35.355C40.9076 35.4153 40.9415 35.4971 40.9415 35.5824C40.9415 36.5586 40.1879 37.4564 38.8186 38.1106C37.5265 38.7282 35.8147 39.0691 33.9992 39.0691Z" fill="#602EDF"/>
<path d="M33.9992 42.2343C32.1835 42.2343 30.4717 41.894 29.1796 41.2758C27.8103 40.6215 27.0566 39.7254 27.0566 38.7476V29.6399C27.0566 29.5546 27.0905 29.4728 27.1509 29.4125C27.2112 29.3521 27.293 29.3183 27.3783 29.3183C27.4636 29.3183 27.5454 29.3521 27.6057 29.4125C27.6661 29.4728 27.7 29.5546 27.7 29.6399V38.7476C27.7 39.452 28.34 40.1629 29.4562 40.6955C30.6643 41.2729 32.2777 41.591 33.9992 41.591C35.7207 41.591 37.3338 41.2729 38.542 40.6955C39.6581 40.1619 40.2982 39.452 40.2982 38.7476V29.2523C40.2982 29.167 40.3321 29.0852 40.3924 29.0249C40.4528 28.9646 40.5346 28.9307 40.6199 28.9307C40.7052 28.9307 40.787 28.9646 40.8473 29.0249C40.9076 29.0852 40.9415 29.167 40.9415 29.2523V38.7476C40.9415 39.7238 40.1879 40.6215 38.8186 41.2758C37.5265 41.894 35.8147 42.2343 33.9992 42.2343Z" fill="#602EDF"/>
<path d="M28.6693 32.8681C28.6482 32.868 28.6272 32.8659 28.6066 32.8616C28.586 32.8575 28.5658 32.8514 28.5464 32.8433C28.527 32.8352 28.5083 32.8253 28.4908 32.8137C28.4732 32.8021 28.4568 32.7888 28.4419 32.7738C28.4082 32.7402 28.3825 32.6995 28.3664 32.6547C28.3504 32.6099 28.3445 32.5621 28.3492 32.5148C28.3539 32.4674 28.369 32.4217 28.3935 32.3809C28.418 32.3401 28.4512 32.3052 28.4908 32.2788C28.5083 32.2672 28.527 32.2573 28.5464 32.2492C28.5658 32.2412 28.586 32.235 28.6066 32.2309C28.6481 32.2225 28.6908 32.2225 28.7323 32.2309C28.7529 32.2351 28.7731 32.2413 28.7925 32.2492C28.8414 32.2694 28.8847 32.3013 28.9183 32.3421C28.952 32.383 28.9751 32.4315 28.9855 32.4834C28.9957 32.5352 28.993 32.5887 28.9776 32.6391C28.9622 32.6896 28.9347 32.7355 28.8974 32.7729C28.8825 32.7878 28.8661 32.8012 28.8485 32.8128C28.831 32.8244 28.8125 32.8343 28.7931 32.8423C28.7737 32.8503 28.7536 32.8564 28.733 32.8607C28.7121 32.8653 28.6907 32.8677 28.6693 32.8681Z" fill="#FFBB04"/>
<path d="M29.9622 33.5136C29.9406 33.5136 29.9191 33.5115 29.8979 33.5072C29.8773 33.503 29.8572 33.4968 29.8377 33.4888C29.8184 33.4808 29.7999 33.4709 29.7824 33.4593C29.7653 33.4479 29.7493 33.4349 29.7348 33.4203C29.6975 33.383 29.6699 33.3371 29.6546 33.2866C29.6392 33.2361 29.6365 33.1826 29.6467 33.1308C29.6509 33.1103 29.6571 33.0901 29.665 33.0707C29.6977 32.9919 29.7602 32.9293 29.839 32.8967C29.8584 32.8887 29.8786 32.8825 29.8992 32.8783C29.9407 32.87 29.9834 32.87 30.0249 32.8783C30.0455 32.8825 30.0657 32.8886 30.0851 32.8967C30.1045 32.9047 30.1232 32.9146 30.1407 32.9263C30.1582 32.9381 30.1746 32.9516 30.1896 32.9665C30.2046 32.9814 30.2179 32.9977 30.2295 33.0154C30.2411 33.0328 30.251 33.0513 30.2591 33.0707C30.2671 33.0901 30.2732 33.1103 30.2774 33.1308C30.2901 33.1933 30.2839 33.258 30.2595 33.3169C30.2352 33.3757 30.1938 33.426 30.1407 33.4612C30.1232 33.4728 30.1045 33.4827 30.0851 33.4908C30.0657 33.4988 30.0455 33.505 30.0249 33.5091C30.0042 33.5127 29.9832 33.5142 29.9622 33.5136Z" fill="#FFBB04"/>
<path d="M28.6693 36.0972C28.584 36.0972 28.5022 36.0633 28.4419 36.003C28.427 35.9881 28.4136 35.9717 28.402 35.9541C28.3786 35.9191 28.3624 35.8799 28.3541 35.8386C28.3455 35.7972 28.3455 35.7544 28.3541 35.7129C28.3582 35.6923 28.3644 35.6721 28.3724 35.6527C28.3806 35.6333 28.3905 35.6147 28.402 35.5971C28.4137 35.5795 28.427 35.5631 28.4419 35.5482C28.4568 35.5332 28.4732 35.5199 28.4908 35.5083C28.5083 35.4966 28.527 35.4867 28.5464 35.4787C28.5658 35.4707 28.586 35.4645 28.6066 35.4604C28.6481 35.452 28.6908 35.452 28.7324 35.4604C28.753 35.4647 28.7733 35.4709 28.7928 35.479C28.8122 35.4871 28.8307 35.497 28.8481 35.5086C28.8658 35.5202 28.8822 35.5336 28.897 35.5485C28.912 35.5635 28.9255 35.5798 28.9372 35.5974C28.9488 35.615 28.9587 35.6336 28.9668 35.653C28.9749 35.6725 28.981 35.6926 28.9852 35.7132C28.9933 35.7547 28.9933 35.7974 28.9852 35.839C28.9769 35.8802 28.9606 35.9194 28.9372 35.9544C28.9136 35.9896 28.8834 36.0199 28.8481 36.0435C28.8307 36.0551 28.8122 36.0651 28.7928 36.0731C28.7734 36.0811 28.7532 36.0872 28.7327 36.0915C28.7118 36.0955 28.6906 36.0974 28.6693 36.0972Z" fill="#FFBB04"/>
<path d="M29.9607 36.7437C29.939 36.7438 29.9175 36.7416 29.8963 36.7373C29.8757 36.7331 29.8556 36.7269 29.8362 36.719C29.8168 36.7109 29.7983 36.701 29.7808 36.6894C29.7632 36.6778 29.7468 36.6644 29.732 36.6495C29.7173 36.6345 29.7042 36.6181 29.6927 36.6006C29.6812 36.583 29.6712 36.5644 29.6631 36.545C29.6551 36.5255 29.6489 36.5054 29.6448 36.4848C29.6366 36.4433 29.6366 36.4006 29.6448 36.359C29.6489 36.3384 29.6551 36.3183 29.6631 36.2989C29.6712 36.2795 29.6812 36.2608 29.6927 36.2432C29.7045 36.2257 29.718 36.2093 29.7329 36.1943C29.7479 36.1795 29.7644 36.1662 29.7821 36.1548C29.8171 36.1314 29.8564 36.1151 29.8976 36.1069C29.9391 36.0985 29.9819 36.0985 30.0234 36.1069C30.044 36.111 30.0641 36.1171 30.0835 36.1252C30.103 36.1333 30.1216 36.1432 30.1392 36.1548C30.1568 36.1664 30.1732 36.1797 30.1881 36.1947C30.2029 36.2096 30.2163 36.226 30.2279 36.2436C30.2395 36.2612 30.2494 36.2798 30.2575 36.2992C30.2656 36.3186 30.2717 36.3388 30.2759 36.3594C30.2844 36.4008 30.2844 36.4436 30.2759 36.4851C30.2717 36.5057 30.2656 36.5259 30.2575 36.5453C30.2494 36.5647 30.2395 36.5833 30.2279 36.6009C30.2047 36.6362 30.1745 36.6664 30.1392 36.6897C30.1216 36.7013 30.103 36.7112 30.0835 36.7193C30.0641 36.7273 30.044 36.7335 30.0234 36.7376C30.0027 36.7417 29.9817 36.7438 29.9607 36.7437Z" fill="#FFBB04"/>
<path d="M28.6693 39.3271C28.6483 39.3271 28.6272 39.3251 28.6066 39.3209C28.586 39.3168 28.5658 39.3106 28.5464 39.3026C28.527 39.2946 28.5083 39.2847 28.4908 39.273C28.4732 39.2612 28.4569 39.2478 28.4419 39.2328C28.427 39.2179 28.4136 39.2015 28.402 39.1839C28.3904 39.1665 28.3805 39.1479 28.3724 39.1286C28.3645 39.1091 28.3583 39.089 28.3541 39.0684C28.3498 39.0473 28.3476 39.0257 28.3477 39.0041C28.3477 38.983 28.3499 38.962 28.3541 38.9414C28.3582 38.9208 28.3644 38.9006 28.3724 38.8812C28.3804 38.8618 28.3903 38.8431 28.402 38.8256C28.4253 38.7903 28.4555 38.7601 28.4908 38.7368C28.5083 38.7251 28.527 38.7152 28.5464 38.7072C28.5658 38.6992 28.586 38.693 28.6066 38.6889C28.6481 38.6805 28.6909 38.6805 28.7324 38.6889C28.7529 38.6931 28.7731 38.6993 28.7925 38.7072C28.8119 38.7153 28.8304 38.7252 28.8478 38.7368C28.8655 38.7484 28.8818 38.7618 28.8967 38.7767C28.9117 38.7917 28.9251 38.808 28.9369 38.8256C28.9486 38.8431 28.9585 38.8618 28.9665 38.8812C28.9746 38.9006 28.9807 38.9208 28.9849 38.9414C28.989 38.962 28.991 38.9831 28.991 39.0041C28.9911 39.0257 28.989 39.0473 28.9849 39.0684C28.9806 39.089 28.9745 39.1091 28.9665 39.1286C28.934 39.2073 28.8715 39.2699 28.7928 39.3026C28.7734 39.3106 28.7533 39.3167 28.7327 39.3209C28.7118 39.3251 28.6906 39.3271 28.6693 39.3271Z" fill="#FFBB04"/>
<path d="M29.9623 39.9735C29.9407 39.9737 29.9191 39.9716 29.898 39.9674C29.8571 39.9587 29.8183 39.9421 29.7838 39.9185C29.7308 39.8832 29.6895 39.8329 29.6651 39.7741C29.657 39.7547 29.6509 39.7345 29.6467 39.7139C29.6425 39.6928 29.6405 39.6712 29.6406 39.6496C29.6406 39.6286 29.6426 39.6075 29.6467 39.5869C29.6509 39.5663 29.657 39.5462 29.6651 39.5267C29.6731 39.5073 29.683 39.4886 29.6947 39.4711C29.7064 39.4536 29.7197 39.4372 29.7346 39.4222C29.7645 39.3924 29.8 39.3688 29.8391 39.3527C29.8585 39.3447 29.8786 39.3385 29.8992 39.3344C29.9407 39.326 29.9835 39.326 30.025 39.3344C30.0456 39.3385 30.0657 39.3447 30.0852 39.3527C30.1046 39.3607 30.1233 39.3706 30.1408 39.3823C30.1584 39.3939 30.1748 39.4073 30.1897 39.4222C30.2046 39.4372 30.2179 39.4535 30.2296 39.4711C30.2413 39.4886 30.2512 39.5073 30.2592 39.5267C30.2672 39.5462 30.2734 39.5663 30.2775 39.5869C30.2817 39.6075 30.2839 39.6285 30.2839 39.6496C30.284 39.6712 30.2818 39.6928 30.2775 39.7139C30.2692 39.7552 30.253 39.7944 30.2296 39.8294C30.218 39.847 30.2046 39.8634 30.1897 39.8783C30.1599 39.9084 30.1245 39.9322 30.0855 39.9486C30.0465 39.9649 30.0046 39.9734 29.9623 39.9735Z" fill="#FFBB04"/>
</g>
</g>
<defs>
<clipPath id="clip0_512_6020">
<rect width="68" height="68" fill="white"/>
</clipPath>
<clipPath id="clip1_512_6020">
<rect width="16.4688" height="16.4688" fill="white" transform="translate(25.7656 25.7656)"/>
</clipPath>
</defs>
</svg>
