<svg width="68" height="68" viewBox="0 0 68 68" fill="none" xmlns="http://www.w3.org/2000/svg">
<path d="M52.0527 8.0498V32.9502L24.1829 32.94C23.4729 32.9102 22.8328 32.4902 22.5129 31.8501L19.6028 26.0498C19.2629 25.3701 18.5728 24.9502 17.8228 24.9502H16.0527V8.0498C16.0527 6.3999 17.4028 5.0498 19.0527 5.0498H49.0527C50.7029 5.0498 52.0527 6.39014 52.0527 8.0498Z" fill="#B75EDB"/>
<path d="M42.1816 13.0381H25.9219C25.5078 13.0381 25.1719 12.7024 25.1719 12.2881C25.1719 11.8738 25.5078 11.5381 25.9219 11.5381H42.1816C42.5957 11.5381 42.9316 11.8738 42.9316 12.2881C42.9316 12.7024 42.5957 13.0381 42.1816 13.0381Z" fill="white"/>
<path d="M45.9883 18.8721H22.1133C21.6992 18.8721 21.3633 18.5364 21.3633 18.1221C21.3633 17.7078 21.6992 17.3721 22.1133 17.3721H45.9883C46.4023 17.3721 46.7383 17.7078 46.7383 18.1221C46.7383 18.5364 46.4023 18.8721 45.9883 18.8721Z" fill="white"/>
<path d="M45.9883 24.707H22.1133C21.6992 24.707 21.3633 24.3713 21.3633 23.957C21.3633 23.5427 21.6992 23.207 22.1133 23.207H45.9883C46.4023 23.207 46.7383 23.5427 46.7383 23.957C46.7383 24.3713 46.4023 24.707 45.9883 24.707Z" fill="white"/>
<path d="M29.4716 47.7761L34.353 40.751C34.6952 40.2585 35.4239 40.2588 35.7657 40.7516L40.6382 47.7767C41.0337 48.3469 40.6257 49.1266 39.9317 49.1266H37.7808L37.7819 55.8779C37.782 56.3528 37.397 56.7379 36.922 56.7379H33.1877C32.7129 56.7379 32.3279 56.353 32.3278 55.8781L32.3267 49.1266H30.1777C29.4835 49.1266 29.0754 48.3462 29.4716 47.7761Z" fill="#B75EDB"/>
<path d="M63.603 32.2002L61.8032 32.2007V18.9399C61.8032 16.8721 60.1211 15.1899 58.0532 15.1899H52.8027V8.0498C52.8027 5.98193 51.1206 4.2998 49.0527 4.2998H19.0527C16.9848 4.2998 15.3027 5.98193 15.3027 8.0498V15.1899H10.0532C7.98533 15.1899 6.3032 16.8721 6.3032 18.9399V24.2002H4.40281C2.71281 24.2002 1.42087 25.7112 1.68211 27.377L6.92234 60.5269C7.21189 62.3657 8.76804 63.7002 10.623 63.7002H57.5928C59.3862 63.7002 60.9326 62.4219 61.2685 60.666C64.3081 45.3682 65.6777 38.5288 66.2978 35.4795C66.6416 33.7895 65.3418 32.2002 63.603 32.2002ZM58.0532 16.6899C59.2939 16.6899 60.3032 17.6992 60.3032 18.9399V32.2012L52.8027 32.2036V16.6899H58.0532ZM19.0527 5.7998H49.0527C50.2934 5.7998 51.3027 6.80908 51.3027 8.0498V32.2002L24.2143 32.1904C23.7778 32.1724 23.3833 31.9131 23.1836 31.5137L20.2739 25.7144C19.8066 24.7803 18.8677 24.2002 17.8227 24.2002H16.8027C16.8027 18.1933 16.8027 13.5968 16.8027 8.0498C16.8027 6.80908 17.812 5.7998 19.0527 5.7998ZM7.8032 18.9399C7.8032 17.6992 8.81248 16.6899 10.0532 16.6899H15.3027V24.2002H7.8032V18.9399ZM64.8281 35.1807C64.208 38.231 62.8374 45.0713 59.7959 60.3789C59.5942 61.4346 58.6675 62.2002 57.5928 62.2002H10.623C9.5112 62.2002 8.5781 61.3984 8.40378 60.293L3.16355 27.1436C3.04554 26.3883 3.63333 25.7002 4.40281 25.7002H17.8227C18.2959 25.7002 18.7207 25.9629 18.9326 26.3862L21.8423 32.1856C22.3304 33.1619 23.3704 33.7002 24.2929 33.7002H63.603C64.39 33.7002 64.9829 34.4172 64.8281 35.1807Z" fill="#602EDF"/>
<path d="M36.3828 40.3237C36.0825 39.8901 35.5884 39.6313 35.0611 39.6309C35.0606 39.6309 35.0615 39.6309 35.0611 39.6309C34.5342 39.6309 34.0391 39.8892 33.7383 40.3223L28.8569 47.3472C28.1151 48.413 28.88 49.8755 30.1787 49.8755H31.5777L31.5786 55.8774C31.5786 56.7651 32.3008 57.4868 33.1885 57.4868H36.9229C37.8106 57.4868 38.5327 56.7646 38.5327 55.877L38.5318 49.8755H39.9326C41.2307 49.8755 41.9953 48.4148 41.2554 47.3482L36.3828 40.3237ZM40.0298 48.3169C39.999 48.3755 39.9492 48.3755 39.9326 48.3755H37.7818C37.367 48.3755 37.0318 48.7125 37.0318 49.1255L37.0327 55.8769C37.0327 55.938 36.9834 55.9868 36.9229 55.9868H33.1885C33.1279 55.9868 33.0786 55.938 33.0786 55.8774L33.0777 49.1255C33.0777 48.7114 32.7417 48.3755 32.3277 48.3755H30.1787C30.1621 48.3755 30.1123 48.3755 30.0811 48.3169C30.0503 48.2578 30.0781 48.2182 30.0884 48.2036L34.9697 41.1782C34.9917 41.147 35.022 41.1308 35.0601 41.1308C35.0981 41.1308 35.1284 41.147 35.1504 41.1782L40.023 48.2031C40.0323 48.2163 40.0611 48.2578 40.0298 48.3169Z" fill="#602EDF"/>
</svg>
