<svg width="17" height="17" viewBox="0 0 17 17" fill="none" xmlns="http://www.w3.org/2000/svg">
<g id="search 1" clipPath="url(#clip0_518_959)">
<path id="Vector" d="M4.0723 10.4067L3.51537 12.4858L1.47977 12.5289C0.87143 11.4006 0.526367 10.1096 0.526367 8.73772C0.526367 7.41112 0.848992 6.16013 1.42087 5.05859H1.4213L3.23355 5.39084L4.02743 7.19222C3.86127 7.67663 3.77071 8.19662 3.77071 8.73772C3.77077 9.32497 3.87715 9.88762 4.0723 10.4067Z" fill="#FBBB00"/>
<path id="Vector_2" d="M16.3866 7.24316C16.4785 7.7271 16.5264 8.22688 16.5264 8.73766C16.5264 9.31041 16.4662 9.8691 16.3515 10.408C15.962 12.2419 14.9444 13.8432 13.5348 14.9764L13.5343 14.9759L11.2517 14.8594L10.9286 12.8427C11.864 12.2942 12.595 11.4357 12.9801 10.408H8.70227V7.24316H13.0425H16.3866Z" fill="#518EF8"/>
<path id="Vector_3" d="M13.5342 14.9755L13.5347 14.9759C12.1637 16.0779 10.4221 16.7372 8.52633 16.7372C5.47974 16.7372 2.83096 15.0344 1.47974 12.5284L4.07227 10.4062C4.74786 12.2093 6.48721 13.4928 8.52633 13.4928C9.4028 13.4928 10.2239 13.2559 10.9285 12.8423L13.5342 14.9755Z" fill="#28B446"/>
<path id="Vector_4" d="M13.6328 2.57905L11.0411 4.7008C10.3119 4.24499 9.4499 3.98168 8.5264 3.98168C6.44112 3.98168 4.66924 5.32409 4.02749 7.1918L1.42134 5.05818H1.4209C2.75234 2.49115 5.43452 0.737305 8.5264 0.737305C10.4675 0.737305 12.2473 1.42874 13.6328 2.57905Z" fill="#F14336"/>
</g>
<defs>
<clipPath id="clip0_518_959">
<rect width="16" height="16" fill="white" transform="translate(0.526367 0.737305)"/>
</clipPath>
</defs>
</svg>