<svg width="44" height="44" viewBox="0 0 44 44" fill="none" xmlns="http://www.w3.org/2000/svg">
<path d="M33.6808 5.20875V21.3208L15.6474 21.3141C15.188 21.2949 14.7738 21.0232 14.5669 20.609L12.6838 16.8558C12.4639 16.416 12.0173 16.1443 11.532 16.1443H10.3867V5.20875C10.3867 4.14117 11.2603 3.26758 12.3279 3.26758H31.7397C32.8074 3.26758 33.6808 4.13486 33.6808 5.20875Z" fill="#8DD1FE"/>
<path d="M27.2915 8.43641H16.7705C16.5025 8.43641 16.2852 8.2192 16.2852 7.95111C16.2852 7.68303 16.5025 7.46582 16.7705 7.46582H27.2915C27.5594 7.46582 27.7768 7.68303 27.7768 7.95111C27.7768 8.2192 27.5594 8.43641 27.2915 8.43641Z" fill="white"/>
<path d="M29.7561 12.2118H14.3076C14.0396 12.2118 13.8223 11.9946 13.8223 11.7265C13.8223 11.4584 14.0396 11.2412 14.3076 11.2412H29.7561C30.024 11.2412 30.2414 11.4584 30.2414 11.7265C30.2414 11.9946 30.024 12.2118 29.7561 12.2118Z" fill="white"/>
<path d="M29.7561 15.9872H14.3076C14.0396 15.9872 13.8223 15.77 13.8223 15.5019C13.8223 15.2338 14.0396 15.0166 14.3076 15.0166H29.7561C30.024 15.0166 30.2414 15.2338 30.2414 15.5019C30.2414 15.77 30.024 15.9872 29.7561 15.9872Z" fill="white"/>
<path d="M19.0692 30.9134L22.2277 26.3678C22.4492 26.0491 22.9206 26.0493 23.1418 26.3682L26.2946 30.9138C26.5506 31.2828 26.2865 31.7873 25.8375 31.7873H24.4457L24.4464 36.1557C24.4465 36.4631 24.1974 36.7122 23.89 36.7122H21.4737C21.1665 36.7122 20.9174 36.4632 20.9173 36.1559L20.9166 31.7873H19.5261C19.0768 31.7873 18.8128 31.2823 19.0692 30.9134Z" fill="#8DD1FE"/>
<path d="M41.1547 20.8354L39.9901 20.8357V12.2553C39.9901 10.9172 38.9016 9.82879 37.5636 9.82879H34.1662V5.2087C34.1662 3.87066 33.0778 2.78223 31.7398 2.78223H12.328C10.99 2.78223 9.90153 3.87066 9.90153 5.2087V9.82879H6.50478C5.16675 9.82879 4.07831 10.9172 4.07831 12.2553V15.6589H2.84865C1.75512 15.6589 0.919159 16.6367 1.0882 17.7145L4.47893 39.1644C4.66629 40.3543 5.67321 41.2178 6.87349 41.2178H37.2657C38.4261 41.2178 39.4267 40.3906 39.6441 39.2545C41.6109 29.3559 42.4971 24.9304 42.8984 22.9573C43.1208 21.8638 42.2798 20.8354 41.1547 20.8354ZM37.5636 10.7994C38.3664 10.7994 39.0195 11.4524 39.0195 12.2553V20.8361L34.1662 20.8376V10.7994H37.5636ZM12.328 3.75281H31.7398C32.5426 3.75281 33.1956 4.40588 33.1956 5.2087V20.8354L15.6679 20.8291C15.3854 20.8174 15.1301 20.6497 15.0009 20.3912L13.1182 16.6387C12.8158 16.0343 12.2083 15.6589 11.5321 15.6589H10.8721C10.8721 11.7721 10.8721 8.79794 10.8721 5.2087C10.8721 4.40588 11.5252 3.75281 12.328 3.75281ZM5.0489 12.2553C5.0489 11.4524 5.70197 10.7994 6.50478 10.7994H9.90153V15.6589H5.0489V12.2553ZM41.9474 22.764C41.5461 24.7377 40.6593 29.1638 38.6912 39.0687C38.5607 39.7518 37.9611 40.2472 37.2657 40.2472H6.87349C6.15408 40.2472 5.55031 39.7284 5.43751 39.0131L2.04678 17.5635C1.97042 17.0748 2.35075 16.6295 2.84865 16.6295H11.5321C11.8383 16.6295 12.1132 16.7995 12.2503 17.0735L14.133 20.826C14.4489 21.4577 15.1218 21.806 15.7187 21.806H41.1547C41.6639 21.806 42.0475 22.2699 41.9474 22.764Z" fill="#387BFE"/>
<path d="M23.5421 26.0919C23.3478 25.8113 23.028 25.6439 22.6868 25.6436C22.6865 25.6436 22.6871 25.6436 22.6868 25.6436C22.3459 25.6436 22.0255 25.8107 21.8309 26.0909L18.6724 30.6365C18.1923 31.3261 18.6873 32.2724 19.5276 32.2724H20.4328L20.4335 36.156C20.4335 36.7304 20.9007 37.1974 21.4751 37.1974H23.8915C24.4659 37.1974 24.9332 36.7301 24.9332 36.1557L24.9325 32.2724H25.839C26.6789 32.2724 27.1737 31.3273 26.6949 30.6371L23.5421 26.0919ZM25.9019 31.2639C25.882 31.3018 25.8497 31.3018 25.839 31.3018H24.4472C24.1789 31.3018 23.962 31.5199 23.962 31.7871L23.9626 36.1557C23.9626 36.1952 23.9307 36.2268 23.8915 36.2268H21.4751C21.436 36.2268 21.404 36.1952 21.404 36.156L21.4034 31.7871C21.4034 31.5192 21.186 31.3018 20.9181 31.3018H19.5276C19.5169 31.3018 19.4847 31.3018 19.4644 31.2639C19.4445 31.2257 19.4626 31.2001 19.4692 31.1906L22.6277 26.6448C22.6419 26.6246 22.6615 26.6141 22.6862 26.6141C22.7108 26.6141 22.7304 26.6246 22.7446 26.6448L25.8974 31.1903C25.9035 31.1988 25.9221 31.2257 25.9019 31.2639Z" fill="#387BFE"/>
</svg>
