<svg width="40" height="40" viewBox="0 0 40 40" fill="none" xmlns="http://www.w3.org/2000/svg">
<rect width="40" height="40" rx="4" fill="white"/>
<g clipPath="url(#clip0_369_6734)">
<path d="M25.625 28.6133H14.375C13.4042 28.6133 12.6172 27.8132 12.6172 26.8263V13.1737C12.6172 12.1868 13.4042 11.3867 14.375 11.3867H25.625C24.6542 11.3867 23.8672 12.1868 23.8672 13.1737V26.8263C23.8672 27.8132 24.6542 28.6133 25.625 28.6133Z" stroke="#444444" stroke-miterlimit="10" stroke-linecap="round" stroke-linejoin="round"/>
<path d="M27.3828 14.9607H23.8672V13.1737C23.8672 12.1868 24.6542 11.3867 25.625 11.3867C26.5958 11.3867 27.3828 12.1868 27.3828 13.1737V14.9607Z" stroke="#444444" stroke-miterlimit="10" stroke-linecap="round" stroke-linejoin="round"/>
<path d="M27.3828 25.0391H23.8672V26.8261C23.8672 27.813 24.6542 28.613 25.625 28.613C26.5958 28.613 27.3828 27.813 27.3828 26.8261V25.0391Z" stroke="#444444" stroke-miterlimit="10" stroke-linecap="round" stroke-linejoin="round"/>
<path d="M17.75 21.6465C18.1246 21.8915 18.3239 21.9186 18.7503 21.9157C19.8429 21.9084 20.24 20.3936 19.1658 20.0139C18.6859 19.8442 18.3298 19.6916 18.0932 19.506C17.681 19.1827 17.8316 18.3528 18.4381 18.1701C18.5491 18.1367 18.6534 18.12 18.7503 18.1154C18.7503 18.1154 19.2003 18.0889 19.5273 18.3664" stroke="#444444" stroke-miterlimit="10" stroke-linecap="round" stroke-linejoin="round"/>
<path d="M18.75 22.3247V21.916" stroke="#444444" stroke-miterlimit="10" stroke-linecap="round" stroke-linejoin="round"/>
<path d="M18.75 17.75V18.1158" stroke="#444444" stroke-miterlimit="10" stroke-linecap="round" stroke-linejoin="round"/>
</g>
<defs>
<clipPath id="clip0_369_6734">
<rect width="18" height="18" fill="white" transform="translate(11 11)"/>
</clipPath>
</defs>
</svg>
