<svg width="40" height="40" viewBox="0 0 40 40" fill="none" xmlns="http://www.w3.org/2000/svg">
<rect width="40" height="40" rx="4" fill="white"/>
<g clipPath="url(#clip0_369_6715)">
<path fill-rule="evenodd" clip-rule="evenodd" d="M15.5 11.5625C13.3254 11.5625 11.5625 13.3254 11.5625 15.5V22.25C11.5625 24.4246 13.3254 26.1875 15.5 26.1875H24.5983L27.5442 28.3299C27.7153 28.4543 27.9417 28.4723 28.1303 28.3762C28.3188 28.2803 28.4375 28.0866 28.4375 27.875V15.5C28.4375 13.3254 26.6746 11.5625 24.5 11.5625H15.5ZM12.6875 15.5C12.6875 13.9467 13.9467 12.6875 15.5 12.6875H24.5C26.0533 12.6875 27.3125 13.9467 27.3125 15.5V26.7704L25.1121 25.1701C25.016 25.1002 24.9001 25.0625 24.7812 25.0625H15.5C13.9467 25.0625 12.6875 23.8033 12.6875 22.25V15.5Z" fill="#444444"/>
<path d="M16.0625 17.75C15.4412 17.75 14.9375 18.2537 14.9375 18.875C14.9375 19.4963 15.4412 20 16.0625 20C16.6838 20 17.1875 19.4963 17.1875 18.875C17.1875 18.2537 16.6838 17.75 16.0625 17.75Z" fill="#444444"/>
<path d="M18.875 18.875C18.875 18.2537 19.3787 17.75 20 17.75C20.6213 17.75 21.125 18.2537 21.125 18.875C21.125 19.4963 20.6213 20 20 20C19.3787 20 18.875 19.4963 18.875 18.875Z" fill="#444444"/>
<path d="M23.9375 17.75C23.3162 17.75 22.8125 18.2537 22.8125 18.875C22.8125 19.4963 23.3162 20 23.9375 20C24.5588 20 25.0625 19.4963 25.0625 18.875C25.0625 18.2537 24.5588 17.75 23.9375 17.75Z" fill="#444444"/>
</g>
<defs>
<clipPath id="clip0_369_6715">
<rect width="18" height="18" fill="white" transform="translate(11 11)"/>
</clipPath>
</defs>
</svg>
