<svg width="18" height="18" viewBox="0 0 18 18" fill="none" xmlns="http://www.w3.org/2000/svg">
<path d="M1.28516 9C1.28516 8.80714 1.34944 8.67857 1.47801 8.55L5.33516 4.69286C5.5923 4.43571 5.97801 4.43571 6.23516 4.69286C6.4923 4.95 6.4923 5.33571 6.23516 5.59286L2.82801 9L6.23516 12.4071C6.4923 12.6643 6.4923 13.05 6.23516 13.3071C5.97801 13.5643 5.5923 13.5643 5.33516 13.3071L1.47801 9.45C1.34944 9.32143 1.28516 9.19286 1.28516 9Z" fill="#444444"/>
<path d="M7.07031 14.7857C7.07031 14.7214 7.07031 14.7214 7.07031 14.6572L9.64174 3.08573C9.70603 2.7643 10.0917 2.50715 10.4132 2.57144C10.7346 2.63573 10.9917 3.02144 10.9275 3.34287L8.35603 14.9143C8.29174 15.2357 7.90603 15.4929 7.5846 15.4286C7.26317 15.3643 7.07031 15.1072 7.07031 14.7857Z" fill="#444444"/>
<path d="M16.7132 9C16.7132 8.80714 16.6489 8.67857 16.5203 8.55L12.6632 4.69286C12.406 4.43571 12.0203 4.43571 11.7632 4.69286C11.506 4.95 11.506 5.33571 11.7632 5.59286L15.1703 9L11.7632 12.4071C11.506 12.6643 11.506 13.05 11.7632 13.3071C12.0203 13.5643 12.406 13.5643 12.6632 13.3071L16.5203 9.45C16.6489 9.32143 16.7132 9.19286 16.7132 9Z" fill="#444444"/>
</svg>
