<svg width="16" height="16" viewBox="0 0 16 16" fill="none" xmlns="http://www.w3.org/2000/svg">
<rect width="16" height="16" fill="#1E1E1E"/>
<g id="Dashbaord/Models">
<path d="M-334 -480C-334 -481.104 -333.105 -482 -332 -482H23071C23072.1 -482 23073 -481.105 23073 -480V5261C23073 5262.1 23072.1 5263 23071 5263H-331.999C-333.104 5263 -334 5262.1 -334 5261V-480Z" fill="#A1B5D2"/>
<path d="M-332 -481H23071V-483H-332V-481ZM23072 -480V5261H23074V-480H23072ZM23071 5262H-331.999V5264H23071V5262ZM-333 5261V-480H-335V5261H-333ZM-331.999 5262C-332.552 5262 -333 5261.55 -333 5261H-335C-335 5262.66 -333.656 5264 -331.999 5264V5262ZM23072 5261C23072 5261.55 23071.6 5262 23071 5262V5264C23072.7 5264 23074 5262.66 23074 5261H23072ZM23071 -481C23071.6 -481 23072 -480.552 23072 -480H23074C23074 -481.657 23072.7 -483 23071 -483V-481ZM-332 -483C-333.657 -483 -335 -481.657 -335 -480H-333C-333 -480.552 -332.552 -481 -332 -481V-483Z" fill="black" fill-opacity="0.1"/>
<g id="Home" clipPath="url(#clip0_1_42)">
<rect width="1440" height="916" transform="translate(-24 -161)" fill="#F6F8F8"/>
<g id="Sidebar">
<g id="Rectangle 34624119" filter="url(#filter0_d_1_42)">
<mask id="path-3-inside-1_1_42" fill="white">
<path d="M-24 -97H40V755H-24V-97Z"/>
</mask>
<path d="M-24 -97H40V755H-24V-97Z" fill="white"/>
<path d="M39.5 -97V755H40.5V-97H39.5Z" fill="#D5D5D5" mask="url(#path-3-inside-1_1_42)"/>
</g>
<g id="Frame 1116601667">
<g id="Playground">
<rect id="Rectangle 22839" x="-12" y="-12" width="40" height="40" rx="4" fill="white"/>
<g id="Component 51">
<g id="Group">
<path id="Vector" fill-rule="evenodd" clip-rule="evenodd" d="M11.536 5.95432C11.7816 6.14459 11.8264 6.49792 11.6361 6.74352L9.43937 9.57852C9.34764 9.69687 9.21242 9.77382 9.06377 9.7922C8.91512 9.81057 8.76527 9.76887 8.64737 9.6764L6.53364 8.0171L4.63525 10.4838C4.44578 10.73 4.0926 10.776 3.84642 10.5864C3.60022 10.397 3.55424 10.0438 3.74371 9.79767L5.98846 6.88092C6.08002 6.76189 6.21534 6.6845 6.36429 6.66582C6.51324 6.64715 6.66347 6.68877 6.78159 6.78147L8.89682 8.44197L10.7468 6.05442C10.9371 5.80885 11.2904 5.76404 11.536 5.95432Z" fill="#444444"/>
<path id="Vector_2" fill-rule="evenodd" clip-rule="evenodd" d="M13.752 1.3252C13.2662 1.3252 12.873 1.71835 12.873 2.2042C12.873 2.68948 13.2663 3.0832 13.752 3.0832C14.2377 3.0832 14.631 2.68948 14.631 2.2042C14.631 1.71835 14.2378 1.3252 13.752 1.3252ZM11.748 2.2042C11.748 1.09703 12.6448 0.200195 13.752 0.200195C14.8592 0.200195 15.756 1.09703 15.756 2.2042C15.756 3.31041 14.8593 4.2082 13.752 4.2082C12.6447 4.2082 11.748 3.31041 11.748 2.2042Z" fill="#444444"/>
<path id="Vector_3" fill-rule="evenodd" clip-rule="evenodd" d="M2.75336 3.2055C1.83613 4.12274 1.40039 5.65736 1.40039 8.22755C1.40039 10.7981 1.83614 12.3327 2.75335 13.2499C3.67056 14.167 5.20517 14.6026 7.77542 14.6026C10.346 14.6026 11.8806 14.167 12.7977 13.2499C13.7148 12.3328 14.1504 10.7982 14.1504 8.22755C14.1504 7.39828 14.1056 6.67115 14.011 6.03472C13.9653 5.72744 14.1774 5.44131 14.4847 5.39564C14.792 5.34998 15.0781 5.56207 15.1238 5.86936C15.2287 6.57538 15.2754 7.36033 15.2754 8.22755C15.2754 10.8604 14.8439 12.7946 13.5932 14.0454C12.3425 15.2961 10.4083 15.7276 7.77542 15.7276C5.14287 15.7276 3.20873 15.2961 1.95788 14.0454C0.707023 12.7946 0.275391 10.8604 0.275391 8.22755C0.275391 5.59496 0.707031 3.66084 1.95787 2.41001C3.2087 1.15918 5.14282 0.727539 7.77542 0.727539C8.62667 0.727539 9.39812 0.772712 10.0934 0.873617C10.4009 0.918234 10.6139 1.20363 10.5693 1.51107C10.5247 1.81851 10.2393 2.03157 9.93182 1.98695C9.30422 1.89587 8.5891 1.85254 7.77542 1.85254C5.20522 1.85254 3.67059 2.28827 2.75336 3.2055Z" fill="#444444"/>
</g>
</g>
</g>
</g>
</g>
</g>
</g>
<defs>
<filter id="filter0_d_1_42" x="-38" y="-110" width="92" height="880" filterUnits="userSpaceOnUse" color-interpolation-filters="sRGB">
<feFlood flood-opacity="0" result="BackgroundImageFix"/>
<feColorMatrix in="SourceAlpha" type="matrix" values="0 0 0 0 0 0 0 0 0 0 0 0 0 0 0 0 0 0 127 0" result="hardAlpha"/>
<feOffset dy="1"/>
<feGaussianBlur stdDeviation="7"/>
<feComposite in2="hardAlpha" operator="out"/>
<feColorMatrix type="matrix" values="0 0 0 0 0.67277 0 0 0 0 0.669025 0 0 0 0 0.669025 0 0 0 0.1 0"/>
<feBlend mode="normal" in2="BackgroundImageFix" result="effect1_dropShadow_1_42"/>
<feBlend mode="normal" in="SourceGraphic" in2="effect1_dropShadow_1_42" result="shape"/>
</filter>
<clipPath id="clip0_1_42">
<rect width="1440" height="916" fill="white" transform="translate(-24 -161)"/>
</clipPath>
</defs>
</svg>
