<svg width="40" height="40" viewBox="0 0 40 40" fill="none" xmlns="http://www.w3.org/2000/svg">
<rect width="40" height="40" rx="4" fill="white"/>
<g clipPath="url(#clip0_369_6747)">
<mask id="mask0_369_6747" style="mask-type:luminance" maskUnits="userSpaceOnUse" x="11" y="11" width="18" height="18">
<path d="M11 11H29V29H11V11Z" fill="white"/>
</mask>
<g mask="url(#mask0_369_6747)">
<path d="M21.6945 13.4357C22.3161 13.5961 22.9033 13.8423 23.4425 14.1612C23.4425 14.1612 23.7022 13.9014 23.994 13.6096C24.2058 13.3976 24.4933 13.2786 24.793 13.2786C25.0923 13.2786 25.3799 13.3976 25.5917 13.6096C25.8487 13.8666 26.1334 14.1513 26.3904 14.4083C26.6024 14.6201 26.7213 14.9077 26.7213 15.207C26.7213 15.5067 26.6024 15.7942 26.3904 16.006C26.0986 16.2977 25.8388 16.5575 25.8388 16.5575C26.1576 17.0967 26.4039 17.6838 26.5643 18.3055H27.3429C27.9668 18.3055 28.4727 18.8113 28.4727 19.4351V20.5649C28.4727 21.1887 27.9668 21.6945 27.3429 21.6945H26.5643C26.4039 22.3161 26.1576 22.9033 25.8388 23.4424C25.8388 23.4424 26.0986 23.7023 26.3904 23.994C26.6024 24.2058 26.7213 24.4933 26.7213 24.793C26.7213 25.0923 26.6024 25.3799 26.3904 25.5917C26.1334 25.8487 25.8487 26.1334 25.5917 26.3904C25.3799 26.6025 25.0923 26.7213 24.793 26.7213C24.4933 26.7213 24.2058 26.6025 23.994 26.3904C23.7022 26.0986 23.4425 25.8388 23.4425 25.8388C22.9033 26.1576 22.3161 26.4039 21.6945 26.5643V27.3429C21.6945 27.9668 21.1887 28.4727 20.5648 28.4727H19.4351C18.8113 28.4727 18.3055 27.9668 18.3055 27.3429V26.5643C17.6839 26.4039 17.0967 26.1576 16.5575 25.8388C16.5575 25.8388 16.2977 26.0986 16.006 26.3904C15.7942 26.6025 15.5066 26.7213 15.207 26.7213C14.9077 26.7213 14.6201 26.6025 14.4083 26.3904C14.1513 26.1334 13.8666 25.8487 13.6096 25.5917C13.3976 25.3799 13.2786 25.0923 13.2786 24.793C13.2786 24.4933 13.3976 24.2058 13.6096 23.994C13.9014 23.7023 14.1612 23.4424 14.1612 23.4424C13.8423 22.9033 13.5961 22.3161 13.4357 21.6945H12.6571C12.0332 21.6945 11.5273 21.1887 11.5273 20.5649V19.4351C11.5273 18.8113 12.0332 18.3055 12.6571 18.3055H13.4357C13.5961 17.6838 13.8423 17.0967 14.1612 16.5575C14.1612 16.5575 13.9014 16.2977 13.6096 16.006C13.3976 15.7942 13.2786 15.5067 13.2786 15.207C13.2786 14.9077 13.3976 14.6201 13.6096 14.4083C13.8666 14.1513 14.1513 13.8666 14.4083 13.6096C14.6201 13.3976 14.9077 13.2786 15.207 13.2786C15.5066 13.2786 15.7942 13.3976 16.006 13.6096C16.2977 13.9014 16.5575 14.1612 16.5575 14.1612C17.0967 13.8423 17.6839 13.5961 18.3055 13.4357V12.657C18.3055 12.0331 18.8113 11.5273 19.4351 11.5273H20.5648C21.1887 11.5273 21.6945 12.0331 21.6945 12.657V13.4357Z" stroke="#444444" stroke-miterlimit="10" stroke-linecap="round" stroke-linejoin="round"/>
<path d="M20.0004 16.611C21.8709 16.611 23.3895 18.1296 23.3895 20.0001C23.3895 21.8706 21.8709 23.3892 20.0004 23.3892C18.1299 23.3892 16.6113 21.8706 16.6113 20.0001C16.6113 18.1296 18.1299 16.611 20.0004 16.611Z" stroke="#444444" stroke-miterlimit="10" stroke-linecap="round" stroke-linejoin="round"/>
</g>
</g>
<defs>
<clipPath id="clip0_369_6747">
<rect width="18" height="18" fill="white" transform="translate(11 11)"/>
</clipPath>
</defs>
</svg>
