<svg width="18" height="18" viewBox="0 0 18 18" fill="none" xmlns="http://www.w3.org/2000/svg">
<g clipPath="url(#clip0_369_6702)">
<path d="M15.7003 17.4374H2.32853C1.67491 17.4374 1.09272 17.0723 0.808656 16.4839C0.524594 15.8956 0.600531 15.2127 1.00666 14.7008L3.43947 11.6357L4.32034 12.3355L1.88753 15.4006C1.75028 15.5738 1.72553 15.7954 1.82172 15.9946C1.91734 16.1937 2.10691 16.3124 2.32797 16.3124H15.7003C15.9202 16.3124 16.1092 16.1942 16.2054 15.9968C16.3022 15.7988 16.2791 15.5777 16.1447 15.4045L13.754 12.3304L14.6417 11.6391L17.0323 14.7132C17.4311 15.2262 17.5014 15.9068 17.2162 16.4907C16.9305 17.074 16.35 17.4374 15.7003 17.4374Z" fill="#444444"/>
<path d="M13.9866 17.4376H4.01231L3.09319 11.0059C3.00037 10.3602 3.19275 9.70657 3.62025 9.21326C4.04775 8.71995 4.66762 8.43701 5.32012 8.43701H12.6787C13.3312 8.43701 13.9506 8.71939 14.3781 9.2127C14.8061 9.70601 14.9991 10.3591 14.9062 11.0059L13.9866 17.4376ZM4.98769 16.3126H13.0112L13.7925 10.8468C13.8386 10.5239 13.7424 10.1971 13.5281 9.95014C13.3144 9.70376 13.005 9.56257 12.6787 9.56257H5.32012C4.99387 9.56257 4.68394 9.70376 4.47019 9.95014C4.25644 10.1965 4.16025 10.5239 4.20637 10.8468L4.98769 16.3126Z" fill="#444444"/>
<path d="M2.53125 2.98584C2.84191 2.98584 3.09375 2.734 3.09375 2.42334C3.09375 2.11268 2.84191 1.86084 2.53125 1.86084C2.22059 1.86084 1.96875 2.11268 1.96875 2.42334C1.96875 2.734 2.22059 2.98584 2.53125 2.98584Z" fill="#444444"/>
<path d="M2.53125 5.83447C2.84191 5.83447 3.09375 5.58263 3.09375 5.27197C3.09375 4.96131 2.84191 4.70947 2.53125 4.70947C2.22059 4.70947 1.96875 4.96131 1.96875 5.27197C1.96875 5.58263 2.22059 5.83447 2.53125 5.83447Z" fill="#444444"/>
<path d="M16.0605 2.13232C16.0605 1.82166 15.8087 1.56982 15.498 1.56982C15.1874 1.56982 14.9355 1.82166 14.9355 2.13232V5.50789C14.9355 5.81855 15.1874 6.07039 15.498 6.07039C15.8087 6.07039 16.0605 5.81855 16.0605 5.50789V2.13232Z" fill="#444444"/>
<path d="M9 14.625C8.06962 14.625 7.3125 13.8679 7.3125 12.9375C7.3125 12.0071 8.06962 11.25 9 11.25C9.93038 11.25 10.6875 12.0071 10.6875 12.9375C10.6875 13.8679 9.93038 14.625 9 14.625ZM9 12.375C8.69006 12.375 8.4375 12.627 8.4375 12.9375C8.4375 13.248 8.69006 13.5 9 13.5C9.30994 13.5 9.5625 13.248 9.5625 12.9375C9.5625 12.627 9.3105 12.375 9 12.375Z" fill="#444444"/>
<path d="M9.01367 7.72852C7.15236 7.72852 5.63867 6.21483 5.63867 4.35352C5.63867 2.4922 7.15236 0.978516 9.01367 0.978516C10.875 0.978516 12.3887 2.4922 12.3887 4.35352C12.3887 6.21483 10.875 7.72852 9.01367 7.72852ZM9.01367 2.10352C7.7728 2.10352 6.76367 3.11264 6.76367 4.35352C6.76367 5.59439 7.7728 6.60352 9.01367 6.60352C10.2545 6.60352 11.2637 5.59439 11.2637 4.35352C11.2637 3.11264 10.254 2.10352 9.01367 2.10352Z" fill="#444444"/>
</g>
<defs>
<clipPath id="clip0_369_6702">
<rect width="18" height="18" fill="white"/>
</clipPath>
</defs>
</svg>
